<svg xmlns="http://www.w3.org/2000/svg" xmlns:xlink="http://www.w3.org/1999/xlink" viewBox="0 0 500 500"><defs><style>.cls-1{fill:#fff;}.cls-2{fill:#82171d;}.cls-3{fill:#0082c8;}.cls-4{fill:url(#linear-gradient);}.cls-5{fill:#83161c;}</style><linearGradient id="linear-gradient" x1="122.24" y1="249.96" x2="347.61" y2="131.34" gradientUnits="userSpaceOnUse"><stop offset="0.11" stop-color="#247cc0"/><stop offset="0.9" stop-color="#5ec6cd"/></linearGradient></defs><g id="Layer_2" data-name="Layer 2"><g id="Layer_1-2" data-name="Layer 1"><rect class="cls-1" width="500" height="500" rx="30.1"/><path class="cls-2" d="M262.81,278.52c-2,2.88-3.64,5.53-5.57,7.92q-20.13,24.87-40.34,49.67a25.21,25.21,0,0,0-1.72,2.89c3.32.62,6.2,1.19,9.09,1.69,8.39,1.42,16.78,2.86,25.18,4.2,1.82.29,2.44,1.24,2.2,2.88-1.09,7.55-2.11,15.11-3.36,22.63-.77,4.64-1.69,5.35-6.4,4.76-14.35-1.79-28.68-3.7-43-5.64-7.39-1-14.82-1.9-22.11-3.39a19.86,19.86,0,0,0-10.12.5c-6.64,1.92-12.43-.94-17.53-5-10-8-16.1-18.5-19.05-30.77-2.25-9.37-3.89-18.88-5.72-28.35-.31-1.62-.72-2.8-2.61-3s-2.7.68-3.35,2.24q-8.55,20.4-17.17,40.77c-1.56,3.7-2.62,7.73-4.84,11-4.89,7.19-14,6.7-18.93-.46A48.23,48.23,0,0,1,69,327.09c-.33-8.23-1-16.52-.38-24.7.73-9.94,2.45-19.81,4.07-29.66,1.18-7.19,2.91-14.25,6.71-20.67,4.3-7.26,10.4-9.41,17.82-6.17,4.75,2.07,7.42,8.64,6.59,14.65-1.36,9.89-2.54,19.82-3.83,29.72-.21,1.56,0,3.14,1.66,3.29a4.59,4.59,0,0,0,3.42-1.48c6.75-8.19,13.36-16.51,20-24.79,3.29-4.08,7.06-7.43,12.62-7.7,6.84-.33,13.55,4,15.18,10.71,1.81,7.47,2.74,15.17,3.8,22.8.88,6.34,1.08,12.77,2.11,19.08a68,68,0,0,0,11.67,28.22c1.25,1.79,2.46,3.6,4,5.93l54.88-63.94-.25-.84c-1.39-.06-2.79-.23-4.18-.18-13.15.48-26.31,1-39.47,1.48-3.59.12-4.13-.24-4.71-3.81-1-6.31-1.95-12.64-2.62-19-.33-3.13.46-3.86,3.68-4.2,5.58-.61,11.17-1.27,16.77-1.5,16.3-.66,32.62-1.15,48.94-1.61,3.14-.09,6.3.4,9.46.42,2.27,0,3.16,1.17,3.31,3.2.22,3,.39,6,.63,8.93.09,1.18.33,2.34.58,4,.69-.75,1.07-1,1.22-1.34,4.24-9.31,12.5-12.45,21.7-13.54,10-1.19,19.84.1,28.91,4.91,11.52,6.12,18.49,16.09,22.34,28.16,6.13,19.23,4,37.87-5.9,55.4C324,353,316,360.86,305,365.22c-16.29,6.47-32.83-2.37-36.88-19.45-3-12.66-1.86-25.13,1.4-37.49,1.5-5.68,3.48-11.22,5.21-16.84.71-2.32,2.35-4.21,4.53-4.18a6.94,6.94,0,0,1,4.86,2.84,13.89,13.89,0,0,1,2,6.64c.55,9.9.67,19.82,1.27,29.71.18,3.08,1.25,6.13,2.13,9.13.62,2.09,2,2.37,3.81,1.06,8.73-6.18,13.33-14.69,14.39-25.22.68-6.75-.32-13.12-4.26-18.83a16,16,0,0,0-10.46-7c-5.33-1-10.7-1.92-16.09-2.45S266.34,282.72,262.81,278.52Z"/><path class="cls-2" d="M394.41,277.74c-3.45,0-6.47-.09-9.49,0q-18.81.64-37.62,1.41c-2.55.1-3.44-1.5-3.83-3.5q-1.41-7.37-2.57-14.77a38.1,38.1,0,0,1-.47-6c0-2.86,1-4,3.89-4.26,9.8-.76,19.59-1.78,29.4-2.06,16.15-.46,32.31-.44,48.46-.56,3.6,0,4.08.41,4.34,4.07.55,7.8,1,15.59,1.34,23.4a6.27,6.27,0,0,1-1.6,3.7Q403.67,307.12,381,335c-1.66,2-1.46,2.66,1.16,3.12,10.54,1.86,21.09,3.66,31.64,5.48,3.84.66,3.9.67,3.42,4.47-.88,7-1.84,13.92-2.77,20.88a7,7,0,0,1-.14,1c-1.8,6.7-2.12,6.18-7.34,5.51-14.95-1.92-29.9-3.84-44.84-5.85-7.74-1-15.45-2.3-23.18-3.43-3.39-.5-3.81-.91-3.81-4.35,0-1.58,0-3.17.08-4.74.29-7,2.15-13,7.25-18.52,11.28-12.14,21.83-25,32.63-37.57,6-7,11.94-14,17.89-21.08A25.06,25.06,0,0,0,394.41,277.74Z"/><path class="cls-2" d="M29,312.92c.21-10.58,3-20.59,6.65-30.42.67-1.81,1.55-3.55,2.09-5.4,1.24-4.2,4.52-6.33,8.08-8.14a2.7,2.7,0,0,1,2.47.15c2.43,3,4.62,5.87,4.65,10.23.11,16.8,1.77,33.46,6.68,49.61,2,6.7,4.66,13.23,7.14,19.78a6.87,6.87,0,0,0,2.22,2.51c3.67,3,4.31,5.67,2.28,10.06-2.12,4.59-5.68,6.39-10.69,5.64a18.19,18.19,0,0,0-4.94.1c-6,.78-10.25-1.47-12.75-7-5.64-12.5-10.71-25.19-13.11-38.79-.27-1.55-.59-3.09-.74-4.66A34.71,34.71,0,0,1,29,312.92Z"/><path class="cls-2" d="M429.8,313.32c0-12.5,3.46-23.22,7.54-33.87,1.75-4.59,4.17-8.16,8.64-10.37,1.72-.85,2.56-.56,3.71.86a16,16,0,0,1,3.82,10.59,156.21,156.21,0,0,0,4.23,38.93c2.51,10,6.28,19.7,9.66,29.47.41,1.17,1.8,2.1,2.92,2.89,2.62,1.86,3.06,4.25,2.32,7.19-1.4,5.5-6.38,9.74-12.21,7.82a8.72,8.72,0,0,0-3.88.18c-5.68.94-10.29-1-12.68-6.23-6.3-13.65-12.12-27.48-13.8-42.63C429.86,316.23,429.85,314.29,429.8,313.32Z"/><path class="cls-2" d="M439.72,220.59a10.52,10.52,0,0,1,10.59,7.81c1.62,5.29.11,10.08-4.12,13-.28.2-.58.4-.88.58-5.92,3.5-7.69,3.29-12.37-1.63a26.34,26.34,0,0,1-3.34-4.05c-4.65-7.32-.27-15.11,8.8-15.75C438.84,220.57,439.28,220.59,439.72,220.59Z"/><path class="cls-2" d="M39.08,220.59c5.56,0,9.13,2.75,10.54,8.06,1.56,5.84-.11,10.48-4.75,13.24-6.11,3.65-7.52,3.48-12.52-1.61a27.63,27.63,0,0,1-3.26-3.77c-4.92-7.29-.57-15.22,8.68-15.91C38.2,220.56,38.65,220.59,39.08,220.59Z"/><path class="cls-3" d="M90.71,402.06H84.54v17.85H81.08V402.06H74.9v-3.22H90.71Z"/><path class="cls-3" d="M111.35,420.3a10.93,10.93,0,1,1,11.1-10.93,10.74,10.74,0,0,1-11.1,10.93Zm7.58-10.93a7.59,7.59,0,1,0-7.58,7.6A7.4,7.4,0,0,0,118.93,409.37Z"/><path class="cls-3" d="M134.64,412V398.84h3.48v13a5,5,0,1,0,10,0v-13h3.48V412a8.46,8.46,0,0,1-16.92,0Z"/><path class="cls-3" d="M172.57,412.11h-4v7.8h-3.46V398.84h8.2c4.06,0,7.08,2.77,7.08,6.66a6.4,6.4,0,0,1-4.28,6.12l4.86,8.29H177.1Zm-4-3.24h4.54c2.29,0,3.76-1.42,3.76-3.4s-1.47-3.4-3.76-3.4h-4.54Z"/><path class="cls-3" d="M191.77,413.27h3.51c0,2.36,1.94,3.66,4.41,3.66,2.24,0,4.16-1.18,4.16-3.12s-2.26-2.62-4.8-3.22c-3.23-.78-6.92-1.67-6.92-6,0-3.8,2.88-6.05,7.37-6.05s7.27,2.49,7.27,6.47h-3.42c0-2.11-1.73-3.24-3.93-3.24s-3.84,1-3.84,2.67c0,1.95,2.17,2.48,4.67,3.07,3.28.82,7.13,1.75,7.13,6.28,0,4.22-3.4,6.46-7.66,6.46C195,420.23,191.77,417.58,191.77,413.27Z"/><path class="cls-3" d="M248.4,419.91c-.51-.56-1-1.09-1.46-1.61a9.72,9.72,0,0,1-6.05,1.95c-3.88,0-6.48-2.31-6.48-5.79,0-3,1.88-4.74,4-6.09-1.74-2.38-2.18-3.7-2.18-5.13,0-2.92,2.24-4.73,5.58-4.73s5.53,1.87,5.53,4.64c0,3-2.36,4.54-4.77,5.94,1.12,1.39,2.53,3,4.22,4.94a8,8,0,0,0,1-3.76h2.82a10.74,10.74,0,0,1-1.79,6l3.26,3.61ZM245,416.1c-2-2.26-3.6-4.06-4.82-5.53-1.46,1-2.57,2.12-2.57,3.78s1.46,2.95,3.64,2.95A6.33,6.33,0,0,0,245,416.1ZM241.82,401c-1.56,0-2.6.88-2.6,2.2,0,.86.56,2,1.71,3.67,1.88-1.06,3.46-2.1,3.46-3.75,0-1.26-1-2.12-2.57-2.12Z"/><path class="cls-3" d="M291.45,402.06h-6.18v17.85h-3.46V402.06h-6.17v-3.22h15.81Z"/><path class="cls-3" d="M310.65,412.11h-4v7.8H303.2V398.84h8.2c4.06,0,7.08,2.77,7.08,6.66a6.4,6.4,0,0,1-4.28,6.12l4.86,8.29h-3.88Zm-4-3.24h4.54c2.29,0,3.76-1.42,3.76-3.4s-1.47-3.4-3.76-3.4h-4.54Z"/><path class="cls-3" d="M343.59,415.32h-9.4l-1.79,4.59h-3.67l8.46-21.07h3.25l8.72,21.07h-3.75Zm-8.2-3.1h7l-3.52-8.88Z"/><path class="cls-3" d="M376.45,398.84l-8.21,21.07H365l-8.4-21.07h3.82L366.61,415l6.06-16.12Z"/><path class="cls-3" d="M400.63,416.64v3.27H388.07V398.84H400.3v3.23h-8.77v5.51h8v3.16h-8v5.9Z"/><path class="cls-3" d="M425.44,416.68v3.23H413.23V398.84h3.46v17.84Z"/><path class="cls-3" d="M435.51,413.27H439c0,2.36,1.94,3.66,4.41,3.66,2.24,0,4.16-1.18,4.16-3.12s-2.26-2.62-4.8-3.22c-3.22-.78-6.92-1.67-6.92-6,0-3.8,2.88-6.05,7.37-6.05s7.28,2.49,7.28,6.47H447.1c0-2.11-1.74-3.24-3.94-3.24s-3.83,1-3.83,2.67c0,1.95,2.16,2.48,4.66,3.07,3.28.82,7.14,1.75,7.14,6.28,0,4.22-3.4,6.46-7.67,6.46C438.73,420.23,435.51,417.58,435.51,413.27Z"/><path class="cls-4" d="M380.07,162a24.86,24.86,0,0,0-13.79-4.15,25.16,25.16,0,0,0-7.09,1,24.56,24.56,0,0,0-6.64,3.09c-.34.22-.68.46-1,.7a35.44,35.44,0,0,0-16.32-15.78A35.38,35.38,0,0,0,302,148.53a24.64,24.64,0,0,0,2.18-7.4c.06-.44.1-.89.14-1.33l-13.49,4c-5.28,1.57-10.54,3.19-15.82,4.78a7.44,7.44,0,0,1-2.19.56,6.08,6.08,0,0,1-1.93-.78c.41-.57.72-1.46,1.27-1.66,2.59-.92,5.25-1.66,7.9-2.44L304.38,137a25.92,25.92,0,0,0-.45-4,25,25,0,0,0-36.15-17.3,25,25,0,0,0-30.61.23,25,25,0,0,1,11.71,21.17c0,.27,0,.54,0,.81a19.5,19.5,0,0,0-32.25-14,19.63,19.63,0,0,0-14.78,1.48,19.62,19.62,0,0,0-8.91,10,39.26,39.26,0,0,0-48.39,27,24.61,24.61,0,0,1,7.92,30.55,22.06,22.06,0,1,0-1.38,4,39.21,39.21,0,0,0,61.85.68,27.31,27.31,0,0,0,48.87-.7,27.33,27.33,0,0,0,29.26,1.93,35.3,35.3,0,0,0,57.22,1.28A25,25,0,1,0,380.07,162Zm-95,20.66a35.4,35.4,0,0,1,.48-20.59A25.08,25.08,0,0,0,290,160.5a35.15,35.15,0,0,0-5.12,18.33A34.75,34.75,0,0,0,285,182.67Z"/><path class="cls-5" d="M464.25,98.19c-1.54-2-4.25-2.06-9.77-1.59-7,.9-8,1.62-11.86,2.11-1.26.31-2.32.12-2.43-.65-.28-1.38,1.17-1.49,1.91-1.72,1.72-.53,9.72-1.94,10.75-2.16-4.72-1.66-11.75-1.05-16.22.19-14.83,4.12-29.59,8.48-44.39,12.72-6.79,1.94-13.28,4.25-20.84,2.34-15.37-3.88-31-6.7-46.5-10.13-27.64-6.11-55.3-12.1-82.84-18.66-9.68-2.32-18.38,0-27.27,2.85-.12,0-.18.3-.35.59a5.36,5.36,0,0,0,.9.56c7.75,2.87,15.5,5.76,23.27,8.58q25.06,9.11,50.13,18.15c1.57.57,2.68,1.18,2.87,3.3.09,1,2.08,2.34,3.42,2.68a19.79,19.79,0,0,0,6.52.37c5.31-.5,10.13,1,14.91,3,3,1.24,6.05,2.29,9.05,3.46.75.29,1.44.71,2.3,1.14-1.11.78-11.09,3.92-23.88,7.7-24.76,7.31-60,17-61.87,16.38l8.58-3c-4.91-3.4-9.74-6.55-14.36-10a18.41,18.41,0,0,0-5.38-3L219.6,137l4.46,12.33-11.35,3.12c0,.39,0,.76,0,1.15l22.48,9.49c0,.28,0,.56,0,.84-4.53,1-7.59,3.67-10,7.94,1.56.09,22.19-1.48,23.63-.92,1.83.71,3.28,5,4.25,7.52l6-1.24s2.23-7.71,2.73-8.95c0,0,18.55-5.28,26.38-7.62,10.38-3.09,20.83-6,31.22-9q7.95-2.33,15.89-4.7,9.13-2.71,18.25-5.51c2.1-.64,3,0,3.44,2,.8,3.52,1.78,7,2.44,10.54.26,1.39-.22,2.91-.19,4.36,0,.21,0,.42,0,.62a8.82,8.82,0,0,0,.51,2.51c.57,1.46,1.6,2.76,2,4.25.86,2.92,1.27,6,2.2,8.85.32,1,1.73,2.35,2.51,2.27,4-.41,7.55-1.91,9.44-5.89,1.39-3,2.75-5.93,4.19-8.86.23-.48.47-1,.71-1.43,5-9.92,10.07-19.84,15.27-29.67a7,7,0,0,1,3.66-3.12c6.61-2.08,13.35-3.77,20-5.74,9.29-2.74,18.62-5.42,27.82-8.48,6.55-2.17,13.79-4.7,17-11.08A3.64,3.64,0,0,0,464.25,98.19ZM335.11,130.66l-30.79,9.14-13.49,4c-5.28,1.57-10.54,3.19-15.82,4.78a7.44,7.44,0,0,1-2.19.56,6.08,6.08,0,0,1-1.93-.78c.41-.57.72-1.46,1.27-1.66,2.59-.92,5.25-1.66,7.9-2.44L304.38,137q13.23-3.92,26.49-7.81c2.11-.62,4.4-2,7,.31C336.75,130,336,130.4,335.11,130.66Zm101.72-30.27a.79.79,0,0,1-.25.15c-2.31.84-34.88,10.45-48.83,14.47-1.29.38-2.79,0-4.19,0,0-.35-.07-1.08-.1-1.44a21.48,21.48,0,0,1,2.24-.54c16.18-4.83,49.67-14.94,50.19-14.88a2.71,2.71,0,0,1,.41.09A1.24,1.24,0,0,1,436.83,100.39Z"/></g></g></svg>