<svg xmlns="http://www.w3.org/2000/svg" xmlns:xlink="http://www.w3.org/1999/xlink" viewBox="0 0 178.26 136.15"><defs><style>.cls-1{fill:#83181e;}.cls-2{fill:#0083c9;}.cls-3{fill:url(#linear-gradient);}.cls-4{fill:#84171c;}</style><linearGradient id="linear-gradient" x1="38.06" y1="68.06" x2="128.15" y2="20.64" gradientUnits="userSpaceOnUse"><stop offset="0.11" stop-color="#247dc1"/><stop offset="0.9" stop-color="#5ec7ce"/></linearGradient></defs><g id="Layer_2" data-name="Layer 2"><g id="Layer_1-2" data-name="Layer 1"><path class="cls-1" d="M94.25,79.48c-.8,1.15-1.45,2.21-2.23,3.16q-8,9.94-16.13,19.86a9.45,9.45,0,0,0-.68,1.15c1.33.25,2.48.48,3.63.68,3.36.57,6.71,1.14,10.07,1.68.72.12,1,.49.88,1.15-.44,3-.85,6-1.35,9-.3,1.86-.67,2.14-2.55,1.91q-8.61-1.08-17.2-2.26c-3-.4-5.92-.76-8.84-1.35a7.92,7.92,0,0,0-4,.2c-2.66.77-5-.38-7-2a21.82,21.82,0,0,1-7.61-12.3c-.9-3.75-1.56-7.55-2.29-11.33-.12-.65-.29-1.12-1-1.21s-1.08.27-1.34.89Q33.1,96.9,29.65,105a24.75,24.75,0,0,1-1.93,4.39c-2,2.87-5.6,2.68-7.57-.18a19.28,19.28,0,0,1-3.39-10.36A87.93,87.93,0,0,1,16.61,89c.29-4,1-7.92,1.63-11.86a23.17,23.17,0,0,1,2.68-8.26c1.72-2.9,4.16-3.76,7.12-2.46,1.9.82,3,3.45,2.64,5.85-.55,4-1,7.92-1.54,11.88-.08.62,0,1.25.67,1.32a1.83,1.83,0,0,0,1.37-.6c2.7-3.27,5.34-6.59,8-9.9,1.31-1.64,2.82-3,5-3.08a5.88,5.88,0,0,1,6.07,4.28c.72,3,1.1,6.06,1.52,9.11.35,2.54.43,5.11.84,7.63a27,27,0,0,0,4.67,11.28c.5.71,1,1.44,1.61,2.37L80.87,81l-.1-.33c-.56,0-1.12-.1-1.67-.08-5.26.2-10.52.41-15.78.59-1.44,0-1.65-.09-1.88-1.52-.41-2.52-.78-5.05-1-7.59-.13-1.25.19-1.54,1.47-1.68,2.23-.24,4.46-.51,6.7-.6,6.52-.26,13-.46,19.57-.64,1.25,0,2.52.16,3.78.17.91,0,1.26.46,1.32,1.28.09,1.19.16,2.38.25,3.57,0,.47.14.93.24,1.6a5.12,5.12,0,0,0,.49-.53c1.69-3.73,5-5,8.67-5.42a19.28,19.28,0,0,1,11.55,2,18.45,18.45,0,0,1,8.94,11.25A26.87,26.87,0,0,1,121,105.21a19.64,19.64,0,0,1-9.89,8.93,10.73,10.73,0,0,1-14.75-7.78,30.44,30.44,0,0,1,.56-15c.6-2.27,1.4-4.48,2.09-6.73A2,2,0,0,1,100.83,83a2.76,2.76,0,0,1,1.94,1.14,5.53,5.53,0,0,1,.81,2.65c.22,4,.27,7.92.5,11.88a16.83,16.83,0,0,0,.86,3.65c.25.83.78.94,1.52.42a13.38,13.38,0,0,0,5.75-10.08,10.79,10.79,0,0,0-1.7-7.53,6.4,6.4,0,0,0-4.18-2.79c-2.13-.4-4.28-.77-6.43-1S95.66,81.16,94.25,79.48Z"/><path class="cls-1" d="M146.85,79.17c-1.37,0-2.58,0-3.79,0-5,.18-10,.36-15,.57-1,0-1.37-.6-1.53-1.4q-.57-2.94-1-5.91a16.06,16.06,0,0,1-.18-2.4c0-1.15.41-1.62,1.55-1.71,3.92-.3,7.83-.71,11.75-.82,6.46-.19,12.92-.18,19.38-.23,1.43,0,1.63.17,1.73,1.63.22,3.12.42,6.23.54,9.35a2.49,2.49,0,0,1-.64,1.48q-9,11.17-18.11,22.32c-.67.81-.59,1.06.46,1.25q6.31,1.11,12.64,2.18c1.54.27,1.57.27,1.37,1.79-.35,2.79-.73,5.57-1.1,8.35,0,.14,0,.28-.06.42-.72,2.67-.85,2.46-2.93,2.2q-9-1.15-17.93-2.34c-3.09-.42-6.18-.92-9.26-1.37-1.36-.2-1.53-.37-1.53-1.74,0-.63,0-1.27,0-1.9a10.87,10.87,0,0,1,2.9-7.4c4.51-4.85,8.73-10,13.05-15,2.4-2.79,4.77-5.61,7.15-8.42C146.46,79.82,146.6,79.55,146.85,79.17Z"/><path class="cls-1" d="M.77,93.23A37.09,37.09,0,0,1,3.43,81.07c.26-.72.62-1.42.83-2.16a5.51,5.51,0,0,1,3.23-3.25,1.06,1.06,0,0,1,1,.06,6.27,6.27,0,0,1,1.86,4.08A69,69,0,0,0,13,99.64c.81,2.67,1.86,5.28,2.85,7.9a2.76,2.76,0,0,0,.89,1c1.47,1.19,1.72,2.26.91,4a3.65,3.65,0,0,1-4.27,2.25,7.73,7.73,0,0,0-2,0,4.43,4.43,0,0,1-5.09-2.79A65.35,65.35,0,0,1,1.08,96.56C1,95.94.84,95.33.78,94.7A14.42,14.42,0,0,1,.77,93.23Z"/><path class="cls-1" d="M161,93.39c0-5,1.39-9.28,3-13.54a7,7,0,0,1,3.46-4.14,1,1,0,0,1,1.48.34,6.34,6.34,0,0,1,1.53,4.23,62.08,62.08,0,0,0,1.69,15.56c1,4,2.51,7.88,3.86,11.78a3,3,0,0,0,1.17,1.16,2.42,2.42,0,0,1,.93,2.87c-.56,2.2-2.55,3.9-4.88,3.13a3.57,3.57,0,0,0-1.55.07,4.34,4.34,0,0,1-5.07-2.49c-2.52-5.45-4.85-11-5.52-17C161,94.55,161,93.78,161,93.39Z"/><path class="cls-1" d="M165,56.32a4.21,4.21,0,0,1,4.23,3.12,4.46,4.46,0,0,1-1.64,5.22l-.36.23c-2.37,1.4-3.07,1.32-4.94-.65a10.3,10.3,0,0,1-1.34-1.62c-1.86-2.92-.1-6,3.52-6.3Z"/><path class="cls-1" d="M4.82,56.32A4,4,0,0,1,9,59.54c.62,2.34,0,4.19-1.9,5.3-2.44,1.45-3,1.39-5-.65a11,11,0,0,1-1.3-1.51c-2-2.91-.23-6.08,3.47-6.36Z"/><path class="cls-2" d="M25.45,128.86H23V136H21.6v-7.14H19.13v-1.29h6.32Z"/><path class="cls-2" d="M33.7,136.15a4.37,4.37,0,1,1,4.44-4.37,4.29,4.29,0,0,1-4.44,4.37Zm3-4.37a3,3,0,1,0-3,3A3,3,0,0,0,36.73,131.78Z"/><path class="cls-2" d="M43,132.84v-5.27h1.4v5.19a2,2,0,1,0,4,0v-5.19h1.39v5.27a3.39,3.39,0,0,1-6.77,0Z"/><path class="cls-2" d="M58.18,132.88h-1.6V136H55.2v-8.43h3.28a2.67,2.67,0,0,1,2.83,2.67,2.55,2.55,0,0,1-1.72,2.44L61.54,136H60Zm-1.6-1.3H58.4a1.36,1.36,0,1,0,0-2.71H56.58Z"/><path class="cls-2" d="M65.85,133.34h1.4c0,.94.78,1.46,1.77,1.46s1.66-.47,1.66-1.24-.9-1.05-1.92-1.29C67.47,132,66,131.6,66,129.86c0-1.52,1.15-2.41,3-2.41s2.91,1,2.91,2.58H70.48c0-.84-.69-1.29-1.57-1.29s-1.54.38-1.54,1.07.87,1,1.87,1.22c1.31.33,2.85.7,2.85,2.51s-1.36,2.58-3.06,2.58C67.14,136.12,65.85,135.06,65.85,133.34Z"/><path class="cls-2" d="M88.49,136l-.59-.64a3.92,3.92,0,0,1-2.41.77,2.32,2.32,0,0,1-2.59-2.31,2.85,2.85,0,0,1,1.6-2.44,3.29,3.29,0,0,1-.87-2c0-1.17.89-1.89,2.23-1.89a2,2,0,0,1,2.21,1.86c0,1.18-.95,1.81-1.91,2.37.45.56,1,1.21,1.69,2a3.31,3.31,0,0,0,.4-1.51h1.13a4.32,4.32,0,0,1-.72,2.41L90,136Zm-1.38-1.53c-.81-.9-1.44-1.62-1.93-2.21a1.88,1.88,0,0,0-1,1.51c0,.71.58,1.18,1.45,1.18A2.53,2.53,0,0,0,87.11,134.47Zm-1.25-6a.92.92,0,0,0-1,.89,2.93,2.93,0,0,0,.68,1.46c.75-.42,1.38-.84,1.38-1.5,0-.5-.41-.85-1-.85Z"/><path class="cls-2" d="M105.7,128.86h-2.47V136h-1.38v-7.14H99.38v-1.29h6.32Z"/><path class="cls-2" d="M113.37,132.88h-1.59V136h-1.39v-8.43h3.28a2.67,2.67,0,0,1,2.83,2.67,2.54,2.54,0,0,1-1.71,2.44l1.94,3.32h-1.55Zm-1.59-1.3h1.81a1.36,1.36,0,1,0,0-2.71h-1.81Z"/><path class="cls-2" d="M126.54,134.16h-3.76l-.71,1.84H120.6l3.38-8.43h1.3l3.49,8.43h-1.5Zm-3.28-1.23h2.8l-1.41-3.56Z"/><path class="cls-2" d="M139.67,127.57,136.39,136H135.1l-3.36-8.43h1.53l2.47,6.45,2.42-6.45Z"/><path class="cls-2" d="M149.34,134.69V136h-5v-8.43h4.89v1.3H145.7v2.2h3.2v1.26h-3.2v2.36Z"/><path class="cls-2" d="M159.26,134.71V136h-4.88v-8.43h1.38v7.14Z"/><path class="cls-2" d="M163.29,133.34h1.4c0,.94.77,1.46,1.76,1.46s1.66-.47,1.66-1.24-.9-1.05-1.91-1.29c-1.29-.31-2.77-.67-2.77-2.41,0-1.52,1.15-2.41,2.94-2.41s2.91,1,2.91,2.58h-1.36c0-.84-.7-1.29-1.58-1.29s-1.53.38-1.53,1.07.87,1,1.87,1.22c1.3.33,2.85.7,2.85,2.51s-1.36,2.58-3.07,2.58C164.57,136.12,163.29,135.06,163.29,133.34Z"/><path class="cls-3" d="M141.12,32.9a9.91,9.91,0,0,0-5.51-1.66,10.21,10.21,0,0,0-2.84.41,9.73,9.73,0,0,0-2.65,1.24l-.4.28a14.16,14.16,0,0,0-6.53-6.31,14.14,14.14,0,0,0-13.28.65,9.5,9.5,0,0,0,.87-3,5,5,0,0,0,.06-.54l-5.39,1.6-6.32,1.91a2.94,2.94,0,0,1-.88.23,2.4,2.4,0,0,1-.77-.31c.16-.23.29-.59.5-.66,1-.37,2.11-.67,3.16-1l9.73-2.89a10.31,10.31,0,0,0-.18-1.59,10,10,0,0,0-14.45-6.92,10,10,0,0,0-12.24.1A10,10,0,0,1,88.68,23v.32A7.8,7.8,0,0,0,82.51,16a7.24,7.24,0,0,0-1.62-.17,7.72,7.72,0,0,0-5.1,1.9,7.88,7.88,0,0,0-2.24-.33,7.81,7.81,0,0,0-7.24,4.9A15.72,15.72,0,0,0,47,33.05a9.82,9.82,0,0,1,4.12,8,9.7,9.7,0,0,1-1,4.21,8.73,8.73,0,0,0,.24-2.06,8.83,8.83,0,0,0-3.94-7.36,8.74,8.74,0,0,0-4.9-1.48,8.84,8.84,0,1,0,8,12.51,15.69,15.69,0,0,0,24.73.27,10.92,10.92,0,0,0,19.53-.28,10.93,10.93,0,0,0,11.7.77,14.12,14.12,0,0,0,22.88.52,10,10,0,1,0,12.7-15.25Zm-38,8.26a14.39,14.39,0,0,1,.19-8.23,9.89,9.89,0,0,0,1.78-.63,14.05,14.05,0,0,0-2,7.33C103.05,40.15,103.08,40.66,103.13,41.16Z"/><path class="cls-4" d="M174.77,7.39c-.61-.78-1.7-.82-3.9-.63-2.81.36-3.2.64-4.74.84-.51.12-.93.05-1-.26-.12-.55.46-.6.76-.69.69-.21,3.89-.77,4.29-.86a12.27,12.27,0,0,0-6.48.07C157.8,7.51,151.9,9.26,146,11c-2.72.77-5.31,1.7-8.33.94-6.15-1.56-12.4-2.68-18.59-4.05C108,5.39,97,3,86,.38c-3.88-.93-7.35,0-10.91,1.14,0,0-.07.11-.14.23a1.51,1.51,0,0,0,.36.22c3.1,1.15,6.2,2.31,9.31,3.44l20,7.25c.63.23,1.08.47,1.15,1.32,0,.41.83.94,1.37,1.07a7.82,7.82,0,0,0,2.6.15,12.3,12.3,0,0,1,6,1.21c1.19.5,2.41.91,3.61,1.38.3.12.58.29.92.46a99.64,99.64,0,0,1-9.54,3.08c-9.9,2.92-24,6.79-24.74,6.54l3.43-1.2c-2-1.36-3.89-2.62-5.74-4a7.18,7.18,0,0,0-2.15-1.21L77,22.89l1.78,4.93-4.54,1.25v.45l9,3.8v.34a5.86,5.86,0,0,0-4,3.17c.62,0,8.86-.59,9.44-.37s1.31,2,1.7,3l2.41-.5s.89-3.08,1.09-3.58c0,0,7.41-2.11,10.54-3,4.15-1.24,8.33-2.39,12.48-3.61l6.35-1.88,7.3-2.2c.84-.26,1.2,0,1.37.79.32,1.4.72,2.8,1,4.21a10.4,10.4,0,0,1-.08,1.75c0,.08,0,.16,0,.24a3.78,3.78,0,0,0,.21,1c.23.58.64,1.1.81,1.69.34,1.17.51,2.39.88,3.54.13.39.69.94,1,.91a4.29,4.29,0,0,0,3.78-2.36c.55-1.18,1.1-2.37,1.67-3.54.09-.19.19-.38.29-.57,2-4,4-7.93,6.1-11.86A2.83,2.83,0,0,1,149,19.22c2.65-.83,5.34-1.5,8-2.29,3.71-1.1,7.44-2.17,11.12-3.39,2.62-.87,5.51-1.88,6.77-4.43A1.43,1.43,0,0,0,174.77,7.39Zm-51.62,13L110.84,24l-5.39,1.6-6.32,1.91a2.94,2.94,0,0,1-.88.23,2.4,2.4,0,0,1-.77-.31c.16-.23.29-.59.5-.66,1-.37,2.11-.67,3.16-1l9.73-2.89q5.28-1.58,10.58-3.12c.85-.25,1.76-.81,2.81.12C123.8,20.11,123.48,20.27,123.15,20.37Zm40.66-12.1a.21.21,0,0,1-.1.06c-.92.34-13.94,4.18-19.52,5.79a6.2,6.2,0,0,1-1.67,0c0-.15,0-.44,0-.58.3-.12.59-.12.89-.21,6.47-1.93,19.86-6,20.07-5.95l.16,0A.49.49,0,0,1,163.81,8.27Z"/></g></g></svg>