<svg xmlns="http://www.w3.org/2000/svg" viewBox="0 0 48.03 48.05"><defs><style>.cls-1{fill:#414142;}</style></defs><g id="Layer_2" data-name="Layer 2"><g id="Layer_1-2" data-name="Layer 1"><path class="cls-1" d="M48,24.32a1.15,1.15,0,0,1-1,.37H25.91c-.77,0-1-.19-1-1V15.92c0-.77.19-1,1-1h1.71V12.79H25.93c-.82,0-1-.17-1-1V4.06c0-.79.17-1,1-1h1.59l.16,0c0-.67,0-1.37,0-2.07a1,1,0,0,1,.47-1h.28a.9.9,0,0,1,.48.92c0,.72,0,1.43,0,2.14H44.1c0-.73,0-1.44,0-2.14A.85.85,0,0,1,44.65,0h.19a.87.87,0,0,1,.49.91c0,.71,0,1.43,0,2.19.66,0,1.26,0,1.87,0a.91.91,0,0,1,.84.38v8.92a.84.84,0,0,1-.83.4H45.35V15A15.38,15.38,0,0,1,47,15a5.67,5.67,0,0,1,1,.33ZM26.21,16.21v7.22H46.8V16.21ZM46.8,4.34H26.19v7.19H46.8Zm-2.72,8.49H28.9v2.1H44.08Z"/><path class="cls-1" d="M19.87,0a.85.85,0,0,1,.55.92c0,.71,0,1.41,0,2.18h1.7c.85,0,1,.16,1,1V23.67c0,.83-.18,1-1,1H1c-.77,0-.94-.17-.94-.94V4C0,3.24.18,3.1,1,3.1H2.56l.18,0c0-.69,0-1.4,0-2.11A.89.89,0,0,1,3.25,0h.19A.87.87,0,0,1,4,.94c0,.71,0,1.42,0,2.12H19.2c0-.74,0-1.44,0-2.15A.88.88,0,0,1,19.68,0Zm2,4.34H1.3v19.1H21.87Z"/><path class="cls-1" d="M29.27,38.15c1.09.14,1.09.14,1.24,1.54h1.61c.05-.41,0-.88.18-1.17s.65-.31,1.08-.48v-.39c0-2.19,0-4.38,0-6.57a3.59,3.59,0,0,1,2.68-3.63,4.64,4.64,0,0,1,1.12-.13c.84,0,1.69,0,2.53,0a3.73,3.73,0,0,1,4,4c0,2.12,0,4.23,0,6.34v.48c.06,0,.08.08.11.08,1,.09,1.07.12,1.07,1.18,0,.52,0,1,0,1.55a1.59,1.59,0,0,1-1.51,1.52c-1.2.06-2.41,0-3.61,0h-.58v4.35H47a1.08,1.08,0,0,1,.51,0c.18.1.42.28.44.45a.88.88,0,0,1-.29.62,1,1,0,0,1-.58.11H.86A.91.91,0,0,1,.32,48a.9.9,0,0,1-.32-.6c0-.18.27-.37.47-.49a1.2,1.2,0,0,1,.51,0H9.06V42.47h-2c-.67,0-1.35,0-2,0a1.72,1.72,0,0,1-1.71-1.84c0-.52,0-1,0-1.55,0-.68.16-.84.86-.86l.35,0v-.54c0-2.24,0-4.48,0-6.72a3.55,3.55,0,0,1,2.69-3.47,5.19,5.19,0,0,1,1.12-.12c.83,0,1.66,0,2.48,0a3.74,3.74,0,0,1,4,4c0,2.11,0,4.22,0,6.33v.5c1.07.18,1.07.18,1.24,1.58h1.6a2.86,2.86,0,0,1,.17-1.18c.17-.26.64-.32,1.07-.51v-.38c0-2.14,0-4.29,0-6.43a3.62,3.62,0,0,1,2.1-3.53,3.5,3.5,0,0,1,1.34-.35c1.14-.05,2.28-.05,3.43,0a3.53,3.53,0,0,1,3.42,3.44c.05,2.26,0,4.53,0,6.8Zm-9.08,0H28c0-.11,0-.19,0-.26,0-2.35,0-4.69,0-7a2.36,2.36,0,0,0-2.37-2.35c-.79,0-1.57,0-2.35,0a5.43,5.43,0,0,0-1.21.06,2.44,2.44,0,0,0-1.94,2.62c0,2.17,0,4.34,0,6.51C20.17,37.86,20.18,38,20.19,38.17Zm22.23,0a.86.86,0,0,0,0-.15c0-2.35,0-4.69,0-7a2.39,2.39,0,0,0-2.61-2.45H37.22a2.42,2.42,0,0,0-2.63,2.62v6.56c0,.15,0,.3,0,.46Zm-36.65,0h7.82a.33.33,0,0,0,.05-.12c0-2.38.06-4.75,0-7.13A2.37,2.37,0,0,0,11,28.53H8.34a2.41,2.41,0,0,0-2.57,2.58v7.06ZM23.5,46.8V42.48H20c-1.38,0-1.77-.26-2.3-1.53H16.06A1.84,1.84,0,0,1,14,42.48H10.33V46.8Zm14.39-4.32H34.14a1.63,1.63,0,0,1-1.71-.92c-.23-.62-.59-.68-1.11-.63-.2,0-.41,0-.61,0a.42.42,0,0,0-.3.21,1.82,1.82,0,0,1-2,1.33H25.26l-.49,0v4.3H37.89Zm-18.9-3v.94c0,.77.1.86.87.87h8.53c.13,0,.29,0,.37,0s.44-.29.47-.48a8,8,0,0,0,0-1.3Zm-14.43,0v1c0,.64.15.79.8.79h8.77c.3,0,.62,0,.66-.38a13.79,13.79,0,0,0,0-1.44Zm39.08,0H33.38v.78c0,1,.07,1,1,1h8.3c.16,0,.35,0,.46,0s.45-.29.48-.47A8.13,8.13,0,0,0,43.64,39.45Z"/><path class="cls-1" d="M39.34,20.41h4.5a3,3,0,0,1,.42,0c.35,0,.59.21.6.59s-.23.56-.59.61H34.76c-.67,0-1-.19-1-.61s.31-.62,1-.62Z"/><path class="cls-1" d="M30.07,20.45c-.51-.5-1-1-1.54-1.49s-.33-.91.11-1a.93.93,0,0,1,.73.19c.54.48,1,1,1.51,1.52l.14-.05c0-.27,0-.55,0-.82a.56.56,0,0,1,.58-.6.54.54,0,0,1,.6.54c0,.84,0,1.68,0,2.53,0,.35-.26.54-.64.54H29.22a.6.6,0,0,1-.06-1.19,5.89,5.89,0,0,1,.84,0Z"/><path class="cls-1" d="M37.68,19.09H34.77a3.59,3.59,0,0,1-.47,0c-.33,0-.55-.27-.5-.56a1.24,1.24,0,0,1,.45-.58c.09-.07.27-.05.41-.05q3,0,6.05,0a2,2,0,0,1,.42,0,.55.55,0,0,1,.46.61.55.55,0,0,1-.54.55l-.42,0Z"/><path class="cls-1" d="M39.35,8.62H43.9c.17,0,.38,0,.5,0s.41.3.42.47a.83.83,0,0,1-.3.6,1,1,0,0,1-.58.1H34.71c-.16,0-.36,0-.46-.06a1.14,1.14,0,0,1-.44-.62c0-.29.2-.51.53-.53h5Z"/><path class="cls-1" d="M30.41,8.54c-.59,0-1.1,0-1.61,0s-.74-.25-.74-.6.3-.6.75-.61H30.4c-.24-.27-.42-.47-.59-.69a.55.55,0,0,1,0-.83.57.57,0,0,1,.87,0c.53.56,1,1.13,1.54,1.7a.56.56,0,0,1,0,.81c-.5.58-1,1.14-1.54,1.7a.58.58,0,0,1-.88,0,.56.56,0,0,1,0-.84Z"/><path class="cls-1" d="M37.66,7.29H34.71c-.17,0-.39,0-.5-.07s-.41-.38-.4-.55.26-.41.45-.56.3,0,.46,0h6l.37,0a.54.54,0,0,1,.54.54.56.56,0,0,1-.51.63,3.55,3.55,0,0,1-.46,0Z"/><path class="cls-1" d="M12.19,15.58c-.67.68-1.34,1.34-2,2a.59.59,0,0,0-.1.38,2.59,2.59,0,0,0,.1.74c.36,1-.21,1.63-.9,2.2a.65.65,0,0,1-1.09-.19C7.8,20,7.43,19.3,7,18.6a1.52,1.52,0,0,0-.51-.5c-.64-.39-1.31-.74-2-1.11s-.73-.8-.2-1.33c.14-.15.3-.28.43-.44a1.09,1.09,0,0,1,1.08-.39,6,6,0,0,1,.88.13,1,1,0,0,0,1.11-.35C8.37,14,9,13.51,9.53,12.93l-.46-.33-4.57-3c-.59-.4-.63-.74-.13-1.24,1.3-1.3.87-1.09,2.49-.69,2,.48,4,1,5.94,1.52A.61.61,0,0,0,13.46,9c.85-.86,1.69-1.72,2.56-2.55A1.79,1.79,0,0,1,17.94,6a1.83,1.83,0,0,1,1.23,1.48,2,2,0,0,1-.69,1.8c-.77.78-1.54,1.56-2.33,2.32a.62.62,0,0,0-.19.7c.57,2.2,1.12,4.41,1.71,6.62a1.08,1.08,0,0,1-.34,1.25c-.22.18-.4.4-.61.59-.44.42-.81.38-1.15-.14L12.48,16C12.4,15.88,12.31,15.75,12.19,15.58Zm4.07,3.88h.12a2.91,2.91,0,0,0,0-.59c-.56-2.21-1.11-4.42-1.7-6.62A1.1,1.1,0,0,1,15,11.06c.66-.65,1.31-1.3,2-2,.28-.28.58-.57.84-.88a.66.66,0,0,0-.89-1,3.17,3.17,0,0,0-.39.34L14,10.13a1,1,0,0,1-1.1.31c-2.26-.6-4.53-1.16-6.8-1.73a2.26,2.26,0,0,0-.45,0l0,.14L6,9.12l4.57,3c.61.4.64.75.12,1.28-.71.71-1.46,1.39-2.11,2.14a1.78,1.78,0,0,1-2,.61,6.64,6.64,0,0,0-1-.12l-.08.17A5.33,5.33,0,0,1,9,19.52,6,6,0,0,0,8.86,18a1.15,1.15,0,0,1,.36-1.14c.83-.81,1.64-1.64,2.46-2.45.53-.52.87-.49,1.28.13q1.48,2.25,3,4.49C16,19.17,16.15,19.31,16.26,19.46Z"/></g></g></svg>