<svg xmlns="http://www.w3.org/2000/svg" viewBox="0 0 42.76 42.77"><defs><style>.cls-1{fill:#414142;}</style></defs><g id="Layer_2" data-name="Layer 2"><g id="Layer_1-2" data-name="Layer 1"><path class="cls-1" d="M34.49,39.33H16.55v1.33a2,2,0,0,1-2.08,2.1q-1.38,0-2.76,0a2,2,0,0,1-2.05-2c0-.2,0-.41,0-.61A1.7,1.7,0,0,0,9,38.39a2.15,2.15,0,0,1-.74-1.81c0-1.35,0-2.7,0-4a3.17,3.17,0,0,1,1.17-2.44,1,1,0,0,0,.3-.52,7.2,7.2,0,0,1,1.95-4.05H11a2.07,2.07,0,0,1,0-4.14c.34,0,.69,0,1,0a2.28,2.28,0,0,1,1.88.67c.05-.11.1-.19.13-.28.18-.53.38-1.05.53-1.59a3.25,3.25,0,0,1,3.11-2.5,70.86,70.86,0,0,1,11.74-.33c1.5.09,3,.23,4.5.43a2.79,2.79,0,0,1,2.33,2c.27.74.51,1.49.78,2.3.93-1,2.1-.68,3.19-.66a2,2,0,0,1,1.82,2.13,2,2,0,0,1-1.91,2c-.24,0-.48,0-.78,0,.24.3.44.54.62.79a7.41,7.41,0,0,1,1.29,3.29.73.73,0,0,0,.25.45,3.22,3.22,0,0,1,1.22,2.59q0,1.92,0,3.84a2.83,2.83,0,0,1-1.13,2.31.72.72,0,0,0-.24.48c0,.49,0,1,0,1.47a2,2,0,0,1-2,2c-.94,0-1.89,0-2.84,0a2,2,0,0,1-2-2C34.48,40.3,34.49,39.84,34.49,39.33Zm0-1.4v-.55a2.32,2.32,0,0,1,2-2.47c1.29-.28,2.58-.52,3.87-.79,1-.21,1-.21,1-1.27a2.11,2.11,0,0,0-.49-1.47.36.36,0,0,0-.52-.1c-.36.2-.75.37-1.12.56a4.3,4.3,0,0,1-6-1.7A.71.71,0,0,1,33.69,29c.67-.24,1.36-.46,2-.69l3.2-1.07a4.75,4.75,0,0,0-1.65-1.54.68.68,0,0,0-.45,0,57.9,57.9,0,0,1-7.43,1.12,52,52,0,0,1-7.49,0,55,55,0,0,1-7.65-1.15.69.69,0,0,0-.45,0,4.72,4.72,0,0,0-1.68,1.56l1.4.47c1.28.43,2.56.85,3.83,1.29.52.18.73.57.5,1a4.19,4.19,0,0,1-4.58,2.38,12.44,12.44,0,0,1-2.38-1c-.57-.25-.67-.24-1,.31a1.35,1.35,0,0,0-.18.47c0,.46,0,.92-.08,1.37,0,.28.07.39.36.45,1.57.29,3.12.6,4.68.94a2.33,2.33,0,0,1,1.86,2.32v.66h2.38c-.26-.62-.5-1.2-.75-1.77s-.51-1.16-.75-1.74a2.39,2.39,0,0,1,2.1-3.35q6,0,12,0a2.31,2.31,0,0,1,2.26,2.3,4.21,4.21,0,0,1-.34,1.44c-.42,1.05-.88,2.08-1.34,3.14Zm1.84-13.64c-.49-1.44-.94-2.86-1.45-4.26a1.37,1.37,0,0,0-1.22-.89c-1.58-.15-3.15-.33-4.72-.42a64.3,64.3,0,0,0-11.52.41,1.42,1.42,0,0,0-1.25.87c-.52,1.41-1,2.84-1.47,4.29A48.74,48.74,0,0,0,36.33,24.29ZM25.52,32.42c-1.91,0-3.82,0-5.73,0a1,1,0,0,0-1,1.54c.42,1,.86,2,1.28,3a1.46,1.46,0,0,0,1.47,1h8a1.49,1.49,0,0,0,1.5-1c.4-1,.83-1.92,1.24-2.89s0-1.63-1.11-1.63C29.26,32.41,27.39,32.42,25.52,32.42ZM9.65,35.33v1.06a1.43,1.43,0,0,0,1.56,1.55h3.57l.39,0c0-.25,0-.46,0-.67a1,1,0,0,0-.75-.94C12.85,36,11.28,35.66,9.65,35.33Zm26.21,2.6c1.44,0,2.82,0,4.2,0a1.26,1.26,0,0,0,1.26-1.09,9.33,9.33,0,0,0,0-1.5c-1.57.32-3.11.62-4.65.95a.94.94,0,0,0-.82,1C35.85,37.46,35.86,37.67,35.86,37.93Zm-24.8,1.39a13,13,0,0,0,0,1.53.61.61,0,0,0,.68.53h2.67a.64.64,0,0,0,.71-.56,15,15,0,0,0,0-1.5Zm28.94,0H35.86c0,.46,0,.89,0,1.32a.68.68,0,0,0,.7.72c.91,0,1.81,0,2.71,0a.69.69,0,0,0,.72-.71C40,40.24,40,39.81,40,39.34ZM16.11,30l-4.68-1.55c-.11.48-.21.9-.28,1.32a.35.35,0,0,0,.18.27c.5.26,1,.52,1.51.75A2.79,2.79,0,0,0,16.11,30ZM39.6,28.46,34.9,30a2.64,2.64,0,0,0,2.59.94A17.36,17.36,0,0,0,40,30ZM13.11,24.14v-.42c0-.72-.24-1-.95-1-.35,0-.71,0-1.07,0a.72.72,0,0,0-.74.68.71.71,0,0,0,.72.7Zm24.82,0h2a.69.69,0,1,0,0-1.38c-.45,0-.89,0-1.34,0a.68.68,0,0,0-.69.68C37.92,23.66,37.93,23.88,37.93,24.14Z"/><path class="cls-1" d="M6.24,38.63c.44,0,.86,0,1.27,0a.67.67,0,0,1,.76.77c0,.86,0,1.73,0,2.59a.67.67,0,0,1-.76.77H.79c-.54,0-.78-.25-.79-.8V39.42c0-.55.25-.78.79-.79H2s.05,0,.12,0V1c0-.84.17-1,1-1H5.36C6,0,6.2.23,6.21.86v.52H27.3c.79,0,1,.18,1,1v9.1c0,.74-.2.94-.94.94H6.24Zm0-35.85V11H26.88V2.78ZM3.48,1.4V38.59H4.81V1.4ZM1.41,40v1.33H6.87V40Z"/><path class="cls-1" d="M19.32,6.53V4.16h1.33a.83.83,0,0,1,0,.15V8.92a.69.69,0,0,1-1.29.4L18,7.14V9.63H16.59a1.25,1.25,0,0,1,0-.19c0-1.52,0-3,0-4.57a.7.7,0,0,1,1.29-.4l1.38,2.07Z"/><path class="cls-1" d="M11.2,7.12a3.58,3.58,0,0,1,.5,2.51H10.35a5.66,5.66,0,0,0,0-.58,3.08,3.08,0,0,0-.08-.68c-.19-.68-.46-.83-1.29-.75v2H7.62a3.16,3.16,0,0,1,0-.32V5c0-.58.23-.82.8-.82s1,0,1.51,0a1.65,1.65,0,0,1,1.64,1A1.66,1.66,0,0,1,11.33,7ZM9,5.52v.69a4.35,4.35,0,0,0,.89,0c.16,0,.3-.22.44-.34-.14-.11-.26-.29-.42-.32A5.49,5.49,0,0,0,9,5.52Z"/><path class="cls-1" d="M13.81,8.27h2V9.65c-.94,0-1.87,0-2.8,0A.6.6,0,0,1,12.42,9c0-1.39,0-2.78,0-4.18a.61.61,0,0,1,.6-.66c.93,0,1.86,0,2.82,0V5.5h-2v.69h2V7.58h-2Z"/><path class="cls-1" d="M24.15,9.64H22.79V5.53H21.41V4.17h4.08V5.5H24.15Z"/></g></g></svg>