<svg xmlns="http://www.w3.org/2000/svg" viewBox="0 0 49.48 40.8"><defs><style>.cls-1{fill:#414142;}</style></defs><g id="Layer_2" data-name="Layer 2"><g id="Layer_1-2" data-name="Layer 1"><path class="cls-1" d="M9.22,36.13l-1.1.47c.09.26.15.49.23.71.17.48.37.95.51,1.44.33,1.13-.09,1.68-1.28,1.74s-2.38.2-3.56.19A3.53,3.53,0,0,1,.15,37.41a7,7,0,0,1,2.13-6.66c1.13-1.1,2.37-2.1,3.52-3.1-.27-1.3-.61-2.63-.82-4-.53-3.54-.12-6.91,2.12-9.85a8,8,0,0,1,6.2-3.29c3-.15,6-.34,9.06-.42A6.27,6.27,0,0,0,26.11,8.8a19.93,19.93,0,0,1,5.34-3.05,10.61,10.61,0,0,1,1.75-.42.92.92,0,0,0,.75-.5,11,11,0,0,1,3.14-3.74,4.85,4.85,0,0,1,6.31.16c.56.45,1,1,1.55,1.49.72.72,1.42,1.46,2.17,2.16a3.7,3.7,0,0,1,1,4.18.69.69,0,0,0,.2.83,3.26,3.26,0,0,1,.81,4,1.51,1.51,0,0,0,0,.64,10.77,10.77,0,0,1,.06,2.4,3.65,3.65,0,0,1-4.41,2.52c-.4-.07-.79-.17-1.27-.28.6,3.75,1.24,7.41,3.07,10.76a58.2,58.2,0,0,1,2.61,5.32,6.47,6.47,0,0,1,.31,2.38,2.14,2.14,0,0,1-.9,1.76,6.39,6.39,0,0,1-4.94,1.34,3.09,3.09,0,0,1-2.51-3.24,1.86,1.86,0,0,1,.61-1A7.22,7.22,0,0,1,43,35.68c-1.55-1.93-3.83-2.91-5.48-4.52-.87,1.52-1.69,3.05-2.61,4.52a10.75,10.75,0,0,1-3.59,3.63,5.6,5.6,0,0,1-2.84.84,3.32,3.32,0,0,1-3.6-3.66c0-1.15.16-1.35,1.29-1.51a2.48,2.48,0,0,0,2.29-2.08c.17-.81.38-1.6.59-2.49a15.57,15.57,0,0,1-10.64-1.73,8.51,8.51,0,0,1-1.1,2,2.89,2.89,0,0,0-.55,2.81,10.74,10.74,0,0,0,1.42,4.14,2.86,2.86,0,0,1,.4,1.1,1.18,1.18,0,0,1-1.15,1.44c-2,0-4.08,0-6.12,0a1.39,1.39,0,0,1-1.31-1c-.26-.74-.41-1.52-.61-2.28C9.29,36.62,9.26,36.4,9.22,36.13ZM35.59,5.49A5.88,5.88,0,0,1,38.3,7.31a17.14,17.14,0,0,1,1.79,2.6,19.78,19.78,0,0,1,1.19,2.8.84.84,0,0,1-.55,1.14.85.85,0,0,1-1.11-.59c0-.11-.08-.22-.11-.33a13.09,13.09,0,0,0-2.17-4.07A4.23,4.23,0,0,0,32,7.42a20.44,20.44,0,0,0-4.65,2.66,39.23,39.23,0,0,1-9,4.68c-.66.24-1.15.09-1.34-.41s.05-1,.74-1.24l2.43-1a2.5,2.5,0,0,0-.92-.1c-1.7.06-3.4.17-5.1.19a6.93,6.93,0,0,0-6.62,4.29,11.23,11.23,0,0,0-.91,6c.24,2.49.66,4.88,2.73,6.61a.85.85,0,0,1,.07,1.34.89.89,0,0,1-1.31-.11c-.38-.39-.74-.79-1.14-1.22A17.68,17.68,0,0,0,2.72,33a4.84,4.84,0,0,0-.52,5,1.56,1.56,0,0,0,.9.83,11.49,11.49,0,0,0,3.88,0c-.22-.68-.45-1.3-.62-1.93a1.27,1.27,0,0,1,.78-1.71c.48-.23,1-.42,1.45-.63a24.07,24.07,0,0,0,5.18-2.64A7.26,7.26,0,0,0,17,25.38a9.46,9.46,0,0,0-1.23-4.08A.86.86,0,0,1,16,20.06a.88.88,0,0,1,1.25.37,4.82,4.82,0,0,1,.27.5,10.57,10.57,0,0,1,1.21,5.4.67.67,0,0,0,.42.76,33.54,33.54,0,0,0,3.78,1.47,14.26,14.26,0,0,0,7.82-.38c1.14-.34,2.25-.8,3.41-1.22-.12-.26-.19-.39-.25-.52-.45-1-.93-1.9-1.34-2.87a.87.87,0,0,1,.53-1.28c.48-.14.86.09,1.11.7a18.5,18.5,0,0,0,4.54,6.9c1.09,1,2.37,1.76,3.49,2.7a16.26,16.26,0,0,1,2.29,2.33c.67.87.4,1.66-.54,2.22l-1,.62c.2,1,.6,1.31,1.48,1.27A5.86,5.86,0,0,0,46,38.76c1.86-.58,2.24-1.23,1.52-3.06a28.72,28.72,0,0,0-2-4.21c-2.53-4.26-3.29-9-3.87-13.78a.88.88,0,0,1,.43-1,1.05,1.05,0,0,1,1.11.15,6.82,6.82,0,0,0,1.63.74,2.31,2.31,0,0,0,2.43-.53,2.19,2.19,0,0,0,.18-2.31c0-.08-.06-.17-.1-.26a1,1,0,0,1,.11-1.12,1.45,1.45,0,0,0,.18-1.69c-.39-.64-.86-1.21-1.75-1.08a3.05,3.05,0,0,1-.74,0,.89.89,0,1,1,0-1.78,6,6,0,0,1,.85,0c.33,0,.47-.09.57-.39a2,2,0,0,0-.59-2.31c-.74-.7-1.44-1.44-2.17-2.16a18.64,18.64,0,0,0-1.5-1.45,3.12,3.12,0,0,0-4-.12A9.44,9.44,0,0,0,35.59,5.49Zm-9,31.22c.14,1.26.61,1.74,1.8,1.64a4.5,4.5,0,0,0,1.91-.56,9.29,9.29,0,0,0,2-1.67,22.88,22.88,0,0,0,3.32-5.38,1.54,1.54,0,0,0-.27-2,.46.46,0,0,0-.61-.15c-1.17.47-2.35.91-3.54,1.34a.61.61,0,0,0-.46.53c-.26,1.23-.54,2.46-.89,3.67a3.43,3.43,0,0,1-2.36,2.33ZM14.92,33.35c-1.26.65-2.5,1.29-3.72,1.95a.47.47,0,0,0-.2.39c.1.74.24,1.48.36,2.23.05.36.26.47.62.47,1.36,0,2.72,0,4.08,0,.14,0,.27,0,.52-.08C15.41,36.78,15.24,35,14.92,33.35Z"/></g></g></svg>