<svg xmlns="http://www.w3.org/2000/svg" viewBox="0 0 52.89 48.78"><defs><style>.cls-1{fill:#414142;}</style></defs><g id="Layer_2" data-name="Layer 2"><g id="Layer_1-2" data-name="Layer 1"><path class="cls-1" d="M31.84,41.18H30.56a.43.43,0,0,0-.51.39c-.16.76-.37,1.51-.56,2.26-.26,1-.51,2-.77,3h-2.2c.3-.07.36-.31.52-.94,0,0,0,0,0-.05l1.19-4.68h3.59Z"/><path class="cls-1" d="M27.69,41.18a2,2,0,0,0-.35,0,.51.51,0,0,0-.36.31c-.47,1.75-.92,3.52-1.38,5.31l.29,0H23.52a.51.51,0,0,0,.29-.41c.21-.91.45-1.81.67-2.7s.42-1.65.62-2.47a.74.74,0,0,0-.22-.08"/><path class="cls-1" d="M52.28,47a2.12,2.12,0,0,0-.67-.08H42.88a.67.67,0,0,1-.72-.46c-.68-1.57-1.41-3.11-2.11-4.67-.08-.17-.14-.35-.22-.57a4.12,4.12,0,0,0,2.84-1.37c.87-.8,1.76-1.57,2.64-2.35,2.11-1.87,4.22-3.73,6.32-5.61a3.5,3.5,0,1,0-4.73-5.14c-2.7,2.39-5.38,4.78-8.08,7.15a1.46,1.46,0,0,1-.85.32c-1.37,0-2.74,0-4.11,0H5.78c-.76,0-1.52,0-2.28,0A3.38,3.38,0,0,0,.41,36.29,3.31,3.31,0,0,0,.94,40,3.49,3.49,0,0,0,3.38,41.2c-.08.22-.15.39-.22.56C2.45,43.32,1.75,44.87,1,46.42A1.78,1.78,0,0,1,.48,47,.94.94,0,0,0,0,48a.84.84,0,0,0,.76.74,8.74,8.74,0,0,0,1,.07c1.72,0,3.43,0,5.14,0h22c3.22,0,6.43,0,9.65,0q6.52,0,13.07,0l.51,0a.85.85,0,0,0,.75-.81A.84.84,0,0,0,52.28,47ZM2,37.35a1.55,1.55,0,0,1,1.27-1.23,4.73,4.73,0,0,1,.85-.06H27.05c3.85,0,7.71,0,11.57,0a1.51,1.51,0,0,0,1-.36c2.85-2.49,5.68-5,8.5-7.53a1.82,1.82,0,0,1,1.87-.53,1.66,1.66,0,0,1,.47,2.87c-1.35,1.21-2.7,2.4-4,3.6-1.72,1.52-3.46,3.05-5.17,4.59a2.51,2.51,0,0,1-1.8.68c-5.91,0-11.82,0-17.74,0H3.73A1.63,1.63,0,0,1,2,37.35Zm2.65,9c-.15.37-.35.55-.75.5a8.53,8.53,0,0,0-1,0c.85-1.88,1.66-3.65,2.47-5.42a.48.48,0,0,1,.36-.21c.39,0,.79,0,1.27,0l-1.2,2.66C5.39,44.72,5,45.54,4.64,46.38Zm22,.48a2.57,2.57,0,0,1-.63,0H23.66a.78.78,0,0,1-.24,0H6.71l-.26,0C7.28,45,8.08,43.24,8.9,41.46a.56.56,0,0,1,.43-.26h7.34v0H33.84a.67.67,0,0,1,.47.29c.8,1.72,1.58,3.45,2.36,5.18a.84.84,0,0,1,0,.19Zm13.57,0c-.4,0-.81,0-1.22,0a.48.48,0,0,1-.32-.24c-.81-1.76-1.61-3.52-2.45-5.38.5,0,.92,0,1.34,0a.51.51,0,0,1,.32.26q1.18,2.6,2.35,5.19S40.24,46.77,40.23,46.87Z"/><path class="cls-1" d="M48.48,9A15.53,15.53,0,0,0,28.35,1.23c-5.85,2.41-9.34,7-11,13-.22.77,0,1.17.82,1.37,4.12,1.06,8.22,2.13,12.34,3.16.45.12.47.27.37.67Q29,26.49,27.23,33.58c-.1.43-.27.59-.61.62h5.51c0-.19,0-.33.06-.45q1.68-6.57,3.34-13.13c.12-.44.25-.52.7-.41q6.08,1.58,12.17,3.1c.91.23,1.33,0,1.53-.84A19.47,19.47,0,0,0,48.48,9ZM27.72,15.66c-.09.28-.16.44-.5.35-2.56-.67-5.13-1.32-7.7-2-.05,0-.1,0-.2-.09,2.09-7.18,8.78-12.27,15.1-12,0,0,0,.08,0,.1a26.88,26.88,0,0,0-5.33,9.46C28.58,12.83,28.16,14.25,27.72,15.66Zm2.46,18.52H29c1.27-5,2.52-9.89,3.78-14.84l1.13.29Q32,26.91,30.18,34.18Zm8-15.41-8.78-2.24C30.6,12.31,32,8.24,34.57,4.7a9.75,9.75,0,0,1,1.89-2c.91-.73,1.57-.53,2.1.51a9.53,9.53,0,0,1,.88,4A41.4,41.4,0,0,1,38.17,18.77Zm10.11,2.59-3.47-.88c-1.43-.36-2.86-.75-4.3-1.09-.44-.11-.53-.25-.43-.69A41,41,0,0,0,41.27,7.34a34.49,34.49,0,0,0-.5-3.49,3.72,3.72,0,0,0-.09-.43,14.53,14.53,0,0,1,6.43,7A17.68,17.68,0,0,1,48.28,21.36Z"/><line class="cls-1" x1="6.23" y1="35.25" x2="4.92" y2="35.25"/></g></g></svg>