<svg xmlns="http://www.w3.org/2000/svg" viewBox="0 0 48.21 47.05"><defs><style>.cls-1{fill:#414142;}</style></defs><g id="Layer_2" data-name="Layer 2"><g id="Layer_1-2" data-name="Layer 1"><path class="cls-1" d="M38.2,45.8h1.19V10.46l2.51.62c.58.15,1.17.32,1.76.43.36.06.44.23.44.58q0,4.61,0,9.23,0,3.63,0,7.27a.47.47,0,0,1-.37.54,3.93,3.93,0,0,0-2.49,3.46,12.85,12.85,0,0,0,1.49,7,1.83,1.83,0,0,1,.2.76c0,1.8,0,3.6,0,5.43h1.14c0-.12,0-.26,0-.4,0-1.81,0-3.63,0-5.45a1.58,1.58,0,0,0-.2-.66,12.25,12.25,0,0,1-1.51-6.46,3.15,3.15,0,0,1,1-2.12,1.77,1.77,0,0,1,2.6,0,3.57,3.57,0,0,1,1,2.88,13.18,13.18,0,0,1-1.53,5.61.93.93,0,0,0-.15.44c0,2,0,4.08,0,6.19h1.72a3.75,3.75,0,0,1,.67,0,.57.57,0,0,1,.49.61.56.56,0,0,1-.52.58,1.94,1.94,0,0,1-.42,0H.64c-.39,0-.64-.2-.64-.61s.27-.59.65-.6H2.94c0-.16,0-.29,0-.43,0-1.82,0-3.63,0-5.45a1.45,1.45,0,0,0-.2-.66,11.9,11.9,0,0,1-1.5-6.6,3,3,0,0,1,1-2,1.77,1.77,0,0,1,2.57,0,3.56,3.56,0,0,1,1,2.83,13.24,13.24,0,0,1-1.52,5.66,1.23,1.23,0,0,0-.16.49V45.6a2,2,0,0,0,0,.2H5.36v-2c0-.48,0-1,0-1.44a8.42,8.42,0,0,1,.72-4.24,11.26,11.26,0,0,0,1-4.45,4.83,4.83,0,0,0-1.47-3.9,2.48,2.48,0,0,0-.87-.57c-.51-.15-.61-.42-.6-.92,0-5.38,0-10.77,0-16.16,0-.41.12-.57.52-.66,1.25-.28,2.5-.61,3.75-.92l.42-.08V45.78H10V10.32H38.2ZM24.68,36h4.71v9.76h1.19V36h1.49c.4,0,.7-.14.73-.57s-.28-.6-.75-.61H16.27c-.54,0-.81.2-.81.59s.24.58.8.59h1.38v9.79h1.2V36.05h4.7v9.74h1.14ZM11.76,14.82v2.1c0,.5.2.7.7.7H15.9c.5,0,.71-.18.71-.68q0-2.1,0-4.2c0-.48-.23-.69-.72-.69q-1.7,0-3.39,0c-.53,0-.73.22-.74.76Zm0,7.35v2c0,.56.19.75.74.75,1.12,0,2.23,0,3.35,0,.56,0,.76-.18.77-.73q0-2.05,0-4.11c0-.52-.22-.72-.73-.73H12.5c-.54,0-.73.21-.74.76Zm24.69-7.32v-2c0-.54-.22-.75-.76-.75-1.11,0-2.22,0-3.34,0-.53,0-.75.21-.75.75,0,1.37,0,2.74,0,4.11,0,.53.2.71.73.71h3.39c.55,0,.73-.2.73-.76Zm0,14.68V27.48c0-.53-.2-.72-.72-.72-1.14,0-2.27,0-3.4,0-.53,0-.73.18-.73.71,0,1.38,0,2.77,0,4.15,0,.5.21.7.7.71h3.44c.51,0,.7-.22.71-.74Zm-24.69,0V31.6c0,.52.21.73.73.73h3.39c.51,0,.73-.2.73-.72,0-1.39,0-2.77,0-4.16,0-.5-.2-.69-.7-.69-1.15,0-2.3,0-3.44,0-.52,0-.7.2-.71.74Zm24.69-7.33c0-.71,0-1.41,0-2.11,0-.49-.21-.7-.69-.7H32.27a.59.59,0,0,0-.67.64c0,1.43,0,2.87,0,4.3a.59.59,0,0,0,.67.64h3.49c.49,0,.68-.2.69-.7C36.46,23.58,36.45,22.9,36.45,22.22Zm-6.6,7.32c0-.68,0-1.37,0-2.05,0-.52-.2-.73-.72-.73H25.68a.61.61,0,0,0-.7.66c0,1.42,0,2.83,0,4.25a.61.61,0,0,0,.7.67h3.44c.5,0,.72-.22.72-.73C29.85,30.91,29.85,30.23,29.85,29.54Zm-6.62,0c0-.68,0-1.37,0-2.05,0-.53-.2-.73-.72-.73q-1.7,0-3.39,0c-.55,0-.75.19-.75.75,0,1.35,0,2.7,0,4.06,0,.56.21.76.79.76h3.3c.56,0,.77-.21.77-.78S23.23,30.21,23.23,29.54Zm-4.87-7.4c0,.7,0,1.4,0,2.1,0,.52.2.73.71.73h3.44a.62.62,0,0,0,.71-.66c0-1.42,0-2.83,0-4.25a.61.61,0,0,0-.69-.67c-1.15,0-2.3,0-3.45,0-.51,0-.72.21-.72.73C18.36,20.8,18.36,21.47,18.36,22.14Zm6.62,0c0,.69,0,1.37,0,2.06s.2.74.75.74c1.12,0,2.23,0,3.35,0,.57,0,.76-.2.76-.78,0-1.34,0-2.67,0-4,0-.58-.2-.77-.77-.78h-3.3c-.59,0-.79.2-.79.81S25,21.52,25,22.17Zm4.87-7.31c0-.69,0-1.37,0-2.06,0-.53-.22-.75-.75-.75-1.11,0-2.23,0-3.34,0-.54,0-.77.21-.77.74q0,2.06,0,4.11c0,.52.21.72.73.72H29.1c.55,0,.74-.2.74-.75S29.85,15.53,29.85,14.86Zm-11.49,0c0,.69,0,1.37,0,2.06,0,.52.2.72.72.72h3.4c.54,0,.74-.2.74-.75,0-1.35,0-2.71,0-4.06,0-.54-.22-.76-.75-.76-1.12,0-2.23,0-3.35,0-.55,0-.76.22-.76.79S18.36,14.18,18.36,14.84ZM25.73,40.9h0v.33c0,.39.19.65.59.65s.58-.27.58-.66,0-.48,0-.71a.52.52,0,0,0-.55-.53.54.54,0,0,0-.6.54A2.41,2.41,0,0,0,25.73,40.9Zm-3.24,0c0-.66-.18-1-.59-1s-.58.28-.58,1,.18,1,.59,1S22.49,41.59,22.49,40.92Z"/><path class="cls-1" d="M24.1,0H37.88c.78,0,1,.27,1,1.06q0,3.49,0,7c0,.8-.25,1.06-1,1.06H10.33c-.8,0-1.05-.26-1.05-1.06q0-3.5,0-7C9.28.27,9.55,0,10.33,0ZM14,4H12.55c-.27,0-.36-.11-.35-.36s0-.8,0-1.2-.12-.56-.47-.62S11,2,11,2.53q0,2,0,4.05c0,.48.25.78.61.77s.56-.29.57-.79,0-.91,0-1.4H14V6.59c0,.47.24.76.6.76s.57-.28.57-.74V2.51c0-.49-.19-.71-.57-.72S14,2,14,2.49Zm6.71.55c0-.41,0-.85-.09-1.27a1.85,1.85,0,0,0-3.66.28q0,1,0,2a1.84,1.84,0,0,0,3.66.28C20.65,5.41,20.64,5,20.67,4.53ZM29.11,3h1.48c.46,0,.72-.24.69-.61s-.3-.57-.68-.57c-.65,0-1.31,0-2,0s-.71.21-.71.74q0,2.05,0,4.11c0,.51.2.73.71.74h2c.46,0,.71-.24.69-.61s-.3-.57-.68-.56H29.12v-1a7.75,7.75,0,0,0,.84,0,.56.56,0,0,0,.57-.63.54.54,0,0,0-.6-.54h-.82Zm5.14,3.24V2.53c0-.5-.21-.76-.61-.74s-.56.32-.56.72V6.62c0,.54.21.73.76.74h2.58c.48,0,.77-.24.76-.6s-.27-.57-.78-.57C35.71,6.18,35,6.19,34.25,6.19ZM24.69,3c.32,0,.59,0,.85,0s.62-.21.61-.6a.54.54,0,0,0-.61-.57H22.72c-.37,0-.63.15-.64.55s.24.6.62.63.53,0,.82,0v.64c0,1.06,0,2.11,0,3.16a.54.54,0,0,0,.59.6.56.56,0,0,0,.57-.59V3Z"/><path class="cls-1" d="M13,16.41V13.25h2.43v3.16Z"/><path class="cls-1" d="M15.39,23.78H13V20.61h2.43Z"/><path class="cls-1" d="M35.26,13.25v3.16H32.82V13.25Z"/><path class="cls-1" d="M32.82,28h2.42v3.18H32.82Z"/><path class="cls-1" d="M13,28H15.4v3.18H13Z"/><path class="cls-1" d="M32.82,20.6h2.42v3.18H32.82Z"/><path class="cls-1" d="M26.21,28h2.43v3.18H26.21Z"/><path class="cls-1" d="M22,31.14H19.58V28H22Z"/><path class="cls-1" d="M22,23.78H19.57V20.6H22Z"/><path class="cls-1" d="M26.19,23.77V20.59h2.44v3.18Z"/><path class="cls-1" d="M26.19,13.22c.77,0,1.5,0,2.23,0a.34.34,0,0,1,.24.25c0,1,0,1.94,0,2.94H26.19Z"/><path class="cls-1" d="M22,16.42H19.54c0-1,0-2,0-2.92a.38.38,0,0,1,.28-.27c.71,0,1.42,0,2.18,0Z"/><path class="cls-1" d="M18.09,4.54c0-.31,0-.61,0-.91A.63.63,0,0,1,18.76,3a.61.61,0,0,1,.68.64c0,.63,0,1.27,0,1.91a.63.63,0,0,1-.69.64.64.64,0,0,1-.66-.67C18.07,5.17,18.09,4.86,18.09,4.54Z"/></g></g></svg>