<svg xmlns="http://www.w3.org/2000/svg" viewBox="0 0 49.88 51.8"><defs><style>.cls-1{fill:#414142;}</style></defs><g id="Layer_2" data-name="Layer 2"><g id="Layer_1-2" data-name="Layer 1"><path class="cls-1" d="M29.72,21.24l-.51.59.76.67.41-.29v-.46Z"/><path class="cls-1" d="M46.38,6.24q-7.5-2.94-15-5.88a1.19,1.19,0,0,0-.77,0C25.8,2.22,21,4.11,16.2,6a1.25,1.25,0,0,1-.81,0Q8.34,3.26,1.29.48L0,0V7.15q0,13.1,0,26.19a.67.67,0,0,0,.49.75C5.44,36,10.37,38,15.31,39.9a1.36,1.36,0,0,0,.87,0c1.25-.45,2.47-.95,3.7-1.43l3.25-1.3c-.15-.34-.27-.65-.4-1l-6.45,2.53v-13a1.8,1.8,0,0,1,.34-1.38,2.66,2.66,0,0,0,.3-.61c-.76-.1-.64-.64-.64-1.14,0-5,0-9.92,0-14.88a.7.7,0,0,1,.51-.79q5.24-2,10.46-4.09l3.14-1.23V22.21l.07-.05v2.4h1.08v-23l9,3.53-.23.48.83.56.48-.61c1.2.47,2.34.93,3.5,1.36a.72.72,0,0,1,.56.81c0,6.35,0,12.71,0,19.06,0,.22,0,.43,0,.65h1a1.08,1.08,0,0,0,0-.19q0-10.25,0-20.5C46.74,6.42,46.61,6.33,46.38,6.24ZM15.22,38v.68L11,37.06c-3.14-1.24-6.28-2.49-9.44-3.7a.69.69,0,0,1-.51-.79c0-1.42,0-2.85,0-4.28,0-.48-.09-1,.62-1.3-.67-.31-.63-.76-.63-1.22q0-11.74,0-23.5V1.59l.4.11L14.84,7a.5.5,0,0,1,.39.55q0,7.88,0,15.75Z"/><path class="cls-1" d="M49.35,35.19A12.68,12.68,0,0,0,39.17,25.9c-.3-.07-.44-.17-.42-.51a14.23,14.23,0,0,0,0-1.6.79.79,0,0,1,.44-.82,4.25,4.25,0,0,0,1.56-5.23,4.3,4.3,0,1,0-6.22,5.34c.13.09.3.26.3.4,0,.76,0,1.51,0,2.28a2.72,2.72,0,0,1-.42.12,13.06,13.06,0,1,0,14.92,9.31ZM33.69,18.53a3.22,3.22,0,0,1,6.23.12A3,3,0,0,1,38.67,22a2,2,0,0,0-3.75,0A3.09,3.09,0,0,1,33.69,18.53Zm4,7.13H35.91c0-1,0-2,0-3.05,0-.53.41-.79,1-.76a.76.76,0,0,1,.77.84C37.67,23.67,37.66,24.65,37.66,25.66Zm-.9,25.06a12,12,0,1,1,12-11.93A12,12,0,0,1,36.76,50.72Z"/><path class="cls-1" d="M23.7,24.12c-1.75-2.58-3.61-5-4.37-8A4.72,4.72,0,0,1,23,10.54a4.61,4.61,0,0,1,5.1,3.9,5,5,0,0,1-.33,2.68A32.5,32.5,0,0,1,23.7,24.12Zm0-1.8a31.88,31.88,0,0,0,3.07-5.38A4,4,0,0,0,27,14.33a3.46,3.46,0,0,0-4-2.69,3.66,3.66,0,0,0-2.61,4.26,12.5,12.5,0,0,0,1.05,2.61C22.1,19.77,22.88,21,23.67,22.32Z"/><path class="cls-1" d="M19.24,26.11l-1.41-.72.46-.95,1.42.71Z"/><path class="cls-1" d="M22.06,27.53l-1.41-.72.48-.95,1.41.71Z"/><path class="cls-1" d="M23.87,27.39l.78-.15.62.56c-.52,1-.69,1.05-1.8.39Z"/><path class="cls-1" d="M25.44,26.08,26.38,25l.81.7-1,1.07Z"/><path class="cls-1" d="M29.08,23.6l-.95,1.08-.8-.7.94-1.08Z"/><path class="cls-1" d="M36.6,12.92l-.88-.61.76-1.12.88.59Z"/><path class="cls-1" d="M39.52,6.66l.89.61-.76,1.12-.89-.58Z"/><path class="cls-1" d="M38.88,9.53l-.76,1.13-.89-.59L38,8.93Z"/><path class="cls-1" d="M34.53,14.08l.45-.66.89.58-.45.67Z"/><path class="cls-1" d="M7.38,18.7c-.41-.58-.79-1.11-1.15-1.65a26.6,26.6,0,0,1-3-5.35,4.88,4.88,0,0,1,1.93-6,4.42,4.42,0,0,1,6.5,2.86,4.68,4.68,0,0,1-.12,2.89A31.6,31.6,0,0,1,7.38,18.7Zm0-1.83a31.54,31.54,0,0,0,3-5.32,4.09,4.09,0,0,0,.26-2.67,3.42,3.42,0,0,0-4-2.63A3.66,3.66,0,0,0,4,10.49C4.63,12.85,6.05,14.78,7.38,16.87Z"/><path class="cls-1" d="M5.06,23.13l-.79-.71,1.17-1.29.8.71Z"/><path class="cls-1" d="M2.7,25.69,1.92,25,3.1,23.68l.78.73Z"/><path class="cls-1" d="M12.22,22.57l.48-.95,1.42.7-.48,1Z"/><path class="cls-1" d="M11.31,20.91l-.49.95-1.41-.71.47-.95Z"/><path class="cls-1" d="M7.28,20.47l-.67-.61.8-.89,1.07.53-.41.84Z"/><path class="cls-1" d="M41.15,34.42l-1.33,4c-.24.73-.47,1.47-.74,2.19a.75.75,0,0,1-.38.42c-2,.69-4,1.35-6,2a1,1,0,0,1-.21,0c.32-1,.63-1.89.95-2.83s.71-2.18,1.09-3.26a.81.81,0,0,1,.41-.46c2-.69,4-1.35,6.05-2A.75.75,0,0,1,41.15,34.42Zm-7,7c1.33-.44,2.56-.84,3.79-1.27a.77.77,0,0,0,.35-.45c.29-.8.56-1.62.83-2.43.12-.37.22-.73.37-1.2l-3.8,1.28a.53.53,0,0,0-.28.32C35,38.87,34.55,40.09,34.11,41.41Z"/><path class="cls-1" d="M47.11,39.26H45v-1h2.14Z"/><path class="cls-1" d="M26.28,39.07v-1h2.15v1Z"/><path class="cls-1" d="M27.42,33.81l.55-.92L29.88,34l-.52.92Z"/><path class="cls-1" d="M33,46l-1.1,1.92-.93-.53,1.12-1.93Z"/><path class="cls-1" d="M32,29.29l1.11,1.92-.91.54L31.1,29.84Z"/><path class="cls-1" d="M42.32,47.49l-.93.53-1.11-1.91.92-.54Z"/><path class="cls-1" d="M44.06,42.39,46,43.49l-.52.93-1.93-1.11Z"/><path class="cls-1" d="M27.87,44.26l-.54-.91,1.91-1.11.55.91Z"/><path class="cls-1" d="M45.53,33.05l.54.92-1.92,1.11-.54-.92Z"/><path class="cls-1" d="M41.55,29.38l.92.53-1.1,1.92-.93-.52Z"/><path class="cls-1" d="M37.28,30.41h-1V28.22h1Z"/><path class="cls-1" d="M37.11,46.91v2.18h-1V46.91Z"/><path class="cls-1" d="M21.71,14.85a2,2,0,0,1,2-2,2,2,0,0,1,2,2,2.06,2.06,0,0,1-2,2A2,2,0,0,1,21.71,14.85Zm2.92,0a.93.93,0,0,0-.94-.94,1,1,0,0,0-.93,1,1,1,0,0,0,.94.9A.9.9,0,0,0,24.63,14.85Z"/><path class="cls-1" d="M7.39,11.44a2,2,0,0,1-2-2,2,2,0,0,1,2-2,2.06,2.06,0,0,1,2.05,2A2,2,0,0,1,7.39,11.44Zm0-2.92a.93.93,0,0,0-.93,1,1,1,0,0,0,1,.92,1,1,0,0,0,.9-.94A.91.91,0,0,0,7.37,8.52Z"/><path class="cls-1" d="M37.85,38.71a1.06,1.06,0,1,1-2.12,0,1.06,1.06,0,0,1,2.12,0Zm-1.21.6h.25c.14-.19.41-.4.39-.58a.74.74,0,0,0-.5-.49c-.12,0-.44.27-.46.45S36.52,39.1,36.64,39.31Z"/></g></g></svg>