<svg xmlns="http://www.w3.org/2000/svg" viewBox="0 0 47.28 47.49"><defs><style>.cls-1{fill:#414142;}</style></defs><g id="Layer_2" data-name="Layer 2"><g id="Layer_1-2" data-name="Layer 1"><path class="cls-1" d="M19.37,0a9.13,9.13,0,0,1,3,2.64,1.39,1.39,0,0,1,0,1.73,2.81,2.81,0,0,1-.45.53L9,17.84a1.7,1.7,0,0,1-2.82,0l-5.7-5.7c-.62-.63-.62-.94,0-1.55L1.84,9.21A.86.86,0,0,1,3.12,9.1c1,.66,1.9,1.33,2.82,2,.3.22.48.23.74,0,.76-.79,1.55-1.55,2.37-2.37-.17-.13-.29-.24-.42-.33L3.54,5c-.9-.6-.94-1.06-.19-1.81.43-.43.87-.84,1.27-1.28a1.1,1.1,0,0,1,1.3-.32c2.37.84,4.75,1.65,7.12,2.5a.66.66,0,0,0,.81-.17c.94-1,1.87-1.94,2.86-2.85A12.72,12.72,0,0,1,18.25,0ZM7.6,16.86c.15-.13.29-.25.42-.38L20.54,4l.19-.19c.2-.17.19-.33,0-.51-.48-.46-.94-.94-1.41-1.4a.74.74,0,0,0-1-.06,2.89,2.89,0,0,0-.41.38L7.22,12.86c-.53.53-.85.57-1.46.14-1-.66-1.9-1.33-2.82-2-.37-.27-.52,0-.73.19s0,.38.1.53l5,4.92A2.24,2.24,0,0,0,7.6,16.86ZM5,4c.13.1.26.2.4.29L9.17,6.76c1.09.73,1.09.73,2-.19l1-1-.39-.16L6.27,3.45C5.55,3.2,5.46,3.24,5,4Z"/><path class="cls-1" d="M29.78,47.49a17.49,17.49,0,1,1,17.5-17.42A17.44,17.44,0,0,1,29.78,47.49ZM42.44,29.18c.91,0,1.82,0,2.73,0,.32,0,.43-.12.4-.45a16.4,16.4,0,0,0-1-4.32,15.13,15.13,0,0,0-2.89-4.81c-.23-.26-.39-.29-.68-.06-.77.59-1.56,1.16-2.37,1.69-.34.22-.46.4-.34.81a27.79,27.79,0,0,1,1,6.66c0,.37.13.49.49.48C40.68,29.17,41.56,29.18,42.44,29.18Zm-25.34,0c.9,0,1.8,0,2.69,0,.36,0,.48-.11.5-.48a17.54,17.54,0,0,1,.15-2.3c.25-1.52.58-3,.85-4.55a.57.57,0,0,0-.14-.45c-.9-.66-1.81-1.29-2.71-1.94a.31.31,0,0,0-.5.05A15.87,15.87,0,0,0,14,28.69c0,.35.07.51.45.5C15.34,29.17,16.22,29.18,17.1,29.18Zm0,1.68c-.88,0-1.76,0-2.64,0-.41,0-.51.16-.47.53a15.79,15.79,0,0,0,3.85,9c.24.28.39.27.67.05.76-.58,1.53-1.15,2.34-1.66a.68.68,0,0,0,.36-.89,26.7,26.7,0,0,1-1-6.53c0-.38-.13-.52-.51-.51C18.89,30.87,18,30.86,17.13,30.86Zm28.44.19a1.17,1.17,0,0,0-.44-.18H39.8c-.35,0-.48.12-.49.48a27.89,27.89,0,0,1-1,6.62.57.57,0,0,0,.28.76c.85.56,1.67,1.15,2.48,1.77.27.2.4.16.61-.07a15.59,15.59,0,0,0,3.88-9.37ZM23,22.31a4.71,4.71,0,0,0-.14.48,28,28,0,0,0-.89,6c0,.32.14.35.38.35h6.26c.33,0,.43-.14.43-.45,0-1.54,0-3.09,0-4.63,0-.33-.13-.43-.45-.49-1.4-.24-2.79-.52-4.17-.82A12,12,0,0,1,23,22.31Zm11.12,6.87c1,0,2.07,0,3.1,0,.34,0,.47-.12.46-.46a26.13,26.13,0,0,0-.87-6c-.07-.29-.2-.39-.5-.27A17.27,17.27,0,0,1,31,23.63c-.33,0-.4.18-.4.48,0,1.54,0,3.08,0,4.63,0,.34.13.45.46.45C32.07,29.17,33.07,29.18,34.07,29.18ZM22.9,37.73a18,18,0,0,1,5.69-1.36c.32,0,.4-.2.4-.49,0-1.5,0-3,0-4.5,0-.42-.16-.53-.55-.52-1,0-2,0-3,0H22.37c-.24,0-.48,0-.44.36.12,1.18.19,2.37.36,3.54C22.43,35.73,22.68,36.69,22.9,37.73Zm13.72-.08a1.2,1.2,0,0,0,.09-.21,26.53,26.53,0,0,0,.92-6.07c0-.39-.14-.51-.51-.51q-3,0-6,0c-.43,0-.55.17-.54.58,0,1.42,0,2.84,0,4.26,0,.64,0,.64.67.72,1,.14,2,.28,3,.5C35,37.09,35.81,37.4,36.62,37.65ZM29,18.13h0c0-1.13,0-2.25,0-3.38,0-.36-.1-.55-.48-.37a7.79,7.79,0,0,0-1.15.59,11.33,11.33,0,0,0-3.79,5.46c0,.09.1.34.22.39A15.46,15.46,0,0,0,28.44,22c.43,0,.56-.12.55-.55C29,20.32,29,19.22,29,18.13Zm0,23.72h0c0-1.11,0-2.22,0-3.33,0-.38-.12-.53-.51-.49a17.13,17.13,0,0,0-4.62,1.11c-.32.13-.4.28-.24.58.62,1.15,1.17,2.35,1.88,3.44a5.89,5.89,0,0,0,2.95,2.43c.45.16.53.11.53-.36Zm7.1-21.14a2,2,0,0,0,0-.21,13.24,13.24,0,0,0-2.78-4.66A5.41,5.41,0,0,0,31,14.37c-.28-.09-.44-.06-.44.29,0,2.3,0,4.6,0,6.91,0,.3.13.42.42.39.52-.06,1.05-.1,1.56-.2A14.86,14.86,0,0,0,36.08,20.71Zm0,18.61a1.76,1.76,0,0,0-.27-.14A16.86,16.86,0,0,0,31.06,38c-.41,0-.46.16-.46.49q0,3.4,0,6.81a2,2,0,0,0,0,.34C33,45.35,35.15,42.18,36.07,39.32ZM34.88,15.07a17.61,17.61,0,0,1,2.8,4.9l2.57-1.83A14.35,14.35,0,0,0,34.88,15.07Zm-10.23,0a14.11,14.11,0,0,0-5.32,3L21.91,20A17.94,17.94,0,0,1,24.65,15.1Zm0,29.79A18.47,18.47,0,0,1,21.89,40l-2.55,1.84A14.49,14.49,0,0,0,24.63,44.89Zm15.62-3L37.67,40A18.2,18.2,0,0,1,35,44.89,14.24,14.24,0,0,0,40.25,41.85Z"/><path class="cls-1" d="M18.33,46.48c-.49-.18-.88-.3-1.24-.46-.08,0-.12-.2-.14-.32s0-.14.07-.21c.45-1.2.45-1.2,1.63-.66h0c.49.43-.07.8-.09,1.2C18.6,46.19,18.42,46.34,18.33,46.48Z"/><path class="cls-1" d="M3.74,23.93c-1,0-1-.06-.85-1,.11-.78.11-.78.92-.65s.78.13.73.93S4.5,24,3.74,23.93Z"/><path class="cls-1" d="M4.34,28.53c.33,0,.6.68.59,1.28,0,.24-.79.56-1.35.55-.22,0-.6-.82-.46-1.36S4,28.77,4.34,28.53Z"/><path class="cls-1" d="M4.45,26.24c0,.88,0,.94-1.23.89-.66,0-.39-.66-.43-1-.08-.67,0-.68,1.18-.7C4.68,25.41,4.36,26,4.45,26.24Z"/><path class="cls-1" d="M9.88,41.72c-.34-.4-.65-.74-.93-1.11-.06-.08,0-.26,0-.39s.08-.09.13-.13c.86-.87,1-.86,1.79.12a.41.41,0,0,1,0,.35C10.62,40.92,10.31,41.25,9.88,41.72Z"/><path class="cls-1" d="M16.11,43.89c-.26.49-.45.87-.66,1.25,0,0-.16.06-.24.06a1,1,0,0,1-.21-.09c-1.37-.73-1.22-.37-.46-1.75,0,0,.08-.14.11-.14a1.93,1.93,0,0,1,.54.12C15.5,43.5,15.79,43.7,16.11,43.89Z"/><path class="cls-1" d="M42.22,11.22a1.56,1.56,0,0,1,.26.23c.22.28.43.57.65.84s.11.33-.09.45l-.19.13c-1,.66-1.13.61-1.67-.45,0-.07-.09-.18-.07-.21Z"/><path class="cls-1" d="M12.44,43.62l-1.16-.91c.2-.32.38-.66.61-1,.1-.12.35-.28.42-.24a7.13,7.13,0,0,1,1,.72.23.23,0,0,1,0,.24c-.22.35-.46.69-.7,1C12.62,43.54,12.53,43.56,12.44,43.62Z"/><path class="cls-1" d="M46.21,18.35a2.55,2.55,0,0,1-.58.28c-.34.05-.71.47-1,.1a2.8,2.8,0,0,1-.41-1.11c0-.1.25-.31.42-.37.34-.12.89-.34,1-.21A4.33,4.33,0,0,1,46.21,18.35Z"/><path class="cls-1" d="M3.82,32.11A2.44,2.44,0,0,1,4,31.88a.53.53,0,0,1,.22-.08c1.38-.41,1-.6,1.51.81,0,.12-.12.31-.2.46s-.11.06-.17.07c-.34.1-.9.38-1,.27A4.73,4.73,0,0,1,3.82,32.11Z"/><path class="cls-1" d="M6,36.46a1.07,1.07,0,0,1-.19-.12,2.14,2.14,0,0,1-.13-.19c-.69-1.08-.58-1.4.66-1.76l.12,0c.25.45.49.9.73,1.35Z"/><path class="cls-1" d="M8,37c.07.06.15.11.21.17.87.92.85,1-.13,1.77-.3.23-.45.22-.69-.09-.8-1-.76-1.22.43-1.77Z"/><path class="cls-1" d="M32.38,6l-1.22-.45a.2.2,0,0,1-.07-.16,10.9,10.9,0,0,1,.41-1.26c0-.06.34-.06.49,0,.36.14.7.33,1,.5-.16.43-.33.86-.5,1.28C32.51,5.94,32.43,6,32.38,6Z"/><path class="cls-1" d="M28.09,4.4c.28-.29-.21-1.08.53-1.09.4,0,1.17-.18,1.24.5s-.25,1.32-.58,1.26C28.17,4.85,28.06,5,28.09,4.4Z"/><path class="cls-1" d="M44.14,13.88c.23.4.45.75.64,1.12.06.12.11.38.06.4a12.1,12.1,0,0,1-1.19.61.16.16,0,0,1-.16,0c-.22-.38-.43-.77-.64-1.16a.16.16,0,0,1,0-.13Z"/><path class="cls-1" d="M40,8.81c.35.34.69.66,1,1,.06.06,0,.22,0,.33s-.06.07-.09.1c-.81.92-1.14.91-1.86-.08a.39.39,0,0,1,0-.38C39.39,9.46,39.69,9.17,40,8.81Z"/><path class="cls-1" d="M37.54,6.81c.38.3.77.6,1.14.92,0,0,0,.17-.06.25-.56,1-1,1.12-1.9.28-.06-.07-.12-.24-.08-.31.22-.35.46-.69.71-1C37.38,6.88,37.45,6.86,37.54,6.81Z"/><path class="cls-1" d="M25,3.79v0c0-.8,0-.84.83-.77l.32,0c.54.06.58.11.5.67-.12,1-.12.94-1.07,1-.44,0-.64-.14-.58-.58A2.62,2.62,0,0,0,25,3.79Z"/><path class="cls-1" d="M36,6c-.26.41-.51.81-.77,1.2,0,0-.14,0-.21,0a1.56,1.56,0,0,1-.28-.16C34.5,6.9,34,6.69,34,6.54a3.29,3.29,0,0,1,.49-1.17.32.32,0,0,1,.29-.11c.38.17.75.37,1.11.56C36,5.85,36,5.94,36,6Z"/><path class="cls-1" d="M5.18,19.68l0,.15c-.11.35-.17,1-.34,1a4,4,0,0,1-1.34-.18s0,0,0,0a11.46,11.46,0,0,1,.18-1.31c0-.08.29-.17.42-.15a3.93,3.93,0,0,1,.89.25C5,19.47,5.12,19.62,5.18,19.68Z"/><path class="cls-1" d="M18.17,5.13l-.48-.45C17,4,17,4.15,17.69,3.46a2.49,2.49,0,0,0,.23-.23c.23-.29.44-.26.66,0,.06.08.14.13.19.2.18.24.54.61.49.69a7.33,7.33,0,0,1-1,1S18.24,5.12,18.17,5.13Z"/></g></g></svg>