<svg xmlns="http://www.w3.org/2000/svg" viewBox="0 0 48.07 48.09"><defs><style>.cls-1{fill:#414142;}</style></defs><g id="Layer_2" data-name="Layer 2"><g id="Layer_1-2" data-name="Layer 1"><path class="cls-1" d="M38.31,48.09H36.06a.9.9,0,0,0-.21-.08,10.65,10.65,0,0,1-8.55-6.43,25.69,25.69,0,0,1-.92-2.77H12.7A3.63,3.63,0,0,0,12.53,40c.28,1.63.64,3.24,1,4.86.21,1.09.4,2.18.6,3.26H3.1V40A2.59,2.59,0,0,0,3,39.42C2.08,35.36,1.14,31.3.18,27.25a6,6,0,0,1,1.08-5.14c1-1.37,2-2.74,3.07-4.09a1.41,1.41,0,0,0,.31-.95c0-5.07,0-10.14,0-15.21A1.72,1.72,0,0,1,6.47,0c9.93,0,19.87,0,29.8,0h5.54a1.37,1.37,0,0,1,1.31.67,2.72,2.72,0,0,1,.31,1.25q0,12.95,0,25.91a.76.76,0,0,0,.29.73,10.69,10.69,0,0,1,4,6c.14.54.23,1.1.34,1.65v2.16a2.8,2.8,0,0,0-.09.31,10.7,10.7,0,0,1-7.45,8.93A18.36,18.36,0,0,1,38.31,48.09ZM6.22,18.62H41.84v-17H6.22Zm3.94,1.6a2.07,2.07,0,0,0,.08.2,4.27,4.27,0,0,1,.64,2.46c0,1.46,0,2.91,0,4.37a2.44,2.44,0,0,0,.83,2,6.91,6.91,0,0,1,2.2,6.15c-.08.61-.26,1.21-.39,1.8H26.34l.16-1.89a7,7,0,1,1,4.54-7,10.93,10.93,0,0,1,10.81-.9V20.22Zm-5.52.17-.15-.06C3.65,21.54,2.75,22.72,2,24a3.54,3.54,0,0,0-.31,2.69c.7,3.06,1.42,6.11,2.14,9.16.23,1,.46,2,.7,3,2.14,0,4.23,0,6.33,0a.54.54,0,0,0,.37-.31c.29-.64.54-1.29.79-1.95a5.58,5.58,0,0,0,.22-3.45,6,6,0,0,0-1.86-3A3.29,3.29,0,0,1,9.3,27.54c0-1.67,0-3.35,0-5a2.32,2.32,0,0,0-1.81-2.28q-1.29-.31-1.29,1v8.21H4.64ZM24,34.12a5.09,5.09,0,0,0,2.84-.82,1.47,1.47,0,0,0,.42-.47c.54-.84,1-1.74,1.62-2.52a2.44,2.44,0,0,0,.55-1.71A5.42,5.42,0,1,0,24,34.12ZM33,40.29h8.52a12.27,12.27,0,0,0,0-6.11l-.14,0c-2.69,0-5.39,0-8.08,0-.28,0-.34.16-.38.37-.09.58-.2,1.17-.25,1.76A11.41,11.41,0,0,0,33,40.29Zm-20.8,6.2a1,1,0,0,0,0-.11c-.38-1.9-.76-3.79-1.13-5.69-.06-.31-.23-.34-.5-.34H4.71v6.14ZM40.88,32.57a.88.88,0,0,0,0-.2,10.13,10.13,0,0,0-3.41-4.15.52.52,0,0,0-.47,0A25,25,0,0,0,35,30a8,8,0,0,0-1.53,2.53ZM37.21,46.4a9.56,9.56,0,0,0,3.67-4.47H33.51A10.42,10.42,0,0,0,37.21,46.4Zm5.88-6.08c.93,0,1.8,0,2.67,0a.41.41,0,0,0,.3-.26,9,9,0,0,0,0-5.6c0-.12-.16-.28-.25-.28-.9,0-1.79,0-2.73,0A14.58,14.58,0,0,1,43.09,40.32ZM31.34,34.14c-.93,0-1.8,0-2.67,0a.48.48,0,0,0-.3.28,9.11,9.11,0,0,0,0,5.61.45.45,0,0,0,.31.26c.87,0,1.74,0,2.66,0A14.63,14.63,0,0,1,31.34,34.14Zm8.82-5.72c.5.69,1,1.27,1.37,1.91s.68,1.36,1,2c0,.09.16.21.25.21h2.45A9.46,9.46,0,0,0,40.16,28.42Zm-11,4.17c.86,0,1.61,0,2.36,0a.53.53,0,0,0,.37-.3,12.24,12.24,0,0,1,2.23-3.61c0-.05.07-.11.16-.25A9.41,9.41,0,0,0,29.18,32.59Zm.09,9.33c.64,1.6,3.51,3.93,4.93,4-.44-.63-.94-1.25-1.35-1.93s-.74-1.4-1.11-2.12Zm13.36,0A13.35,13.35,0,0,1,40.2,46a9.09,9.09,0,0,0,5-4.08Z"/><path class="cls-1" d="M17.06,40.35v1.51H15.53V40.35Z"/><path class="cls-1" d="M20.15,40.36v1.49H18.64V40.36Z"/><path class="cls-1" d="M21.74,40.34h1.5v1.52h-1.5Z"/><path class="cls-1" d="M7.79,3.13H21.68V17.07H7.79ZM20.14,4.71H9.33V15.38a4.23,4.23,0,0,1,2.48-2.71,3.89,3.89,0,0,1,5.34-5.61,3.76,3.76,0,0,1,1.41,2.36,3.81,3.81,0,0,1-.93,3.24,4.33,4.33,0,0,1,2.51,2.67Zm-5.4,3.08a2.31,2.31,0,1,0,2.31,2.33A2.32,2.32,0,0,0,14.74,7.79Zm3.63,7.7A2,2,0,0,0,16.55,14c-1.2,0-2.41,0-3.61,0a2,2,0,0,0-1.84,1.48Z"/><path class="cls-1" d="M40.31,3.14V7.76h-17V3.14Zm-6.15,3h1.48V4.71H34.16Zm-1.62,0V4.73H31.06V6.19Zm-4.6,0h1.5V4.72h-1.5ZM24.85,4.71V6.17h1.47V4.71ZM38.73,6.19V4.72H37.26V6.19Z"/><path class="cls-1" d="M29.49,10.87V9.35H40.3v1.52Z"/><path class="cls-1" d="M29.49,17.07V15.55H40.3v1.52Z"/><path class="cls-1" d="M29.48,14V12.45H40.3V14Z"/><path class="cls-1" d="M27.89,15.54v1.53h-4.6V15.54Z"/><path class="cls-1" d="M23.28,14V12.45h4.61V14Z"/><path class="cls-1" d="M23.3,9.34h4.59v1.52H23.3Z"/><path class="cls-1" d="M26.54,25.88l1.2,1L23.39,32.1l-2.9-2.9,1.12-1,1.59,1.67Z"/></g></g></svg>